<svg id="Layer_19" data-name="Layer 19" xmlns="http://www.w3.org/2000/svg" width="68.02" height="54.42" viewBox="0 0 68.02 54.42">
  <defs>
    <style>
      .cls-1 {
        fill: #020202;
      }
    </style>
  </defs>
  <path class="cls-1" d="M36.42,32.31,31,38.09a21.48,21.48,0,0,0,20.54,8.63v7.7L68,41.49,51.52,30.61v7.14S45.94,40.47,36.42,32.31Z"/>
  <path class="cls-1" d="M0,7.82V16s11.25,0,14.65,5.11L20.1,16S19.36,7.14,0,7.82Z"/>
  <path class="cls-1" d="M51.52,0,68,11.56,51.52,23.13V16s-9.66-3.74-22.24,12.93S8.13,47.27,0,46.59V37.75s8.53,2.16,23.5-14.39,12.85-14.52,28-15.88Z"/>
</svg>
