<svg id="Layer_17" data-name="Layer 17" xmlns="http://www.w3.org/2000/svg" width="68.46" height="70.91" viewBox="0 0 68.46 70.91">
  <defs>
    <style>
      .cls-1 {
        fill: #020202;
      }
    </style>
  </defs>
  <path class="cls-1" d="M16.71,70.87s-11,.82-15.74-11c0,0-2.86-4.7,1.23-12.06,0,0-5.52-17.16,1.84-29.63S20.39,2.42,20.39,2.42,32-1.67,44.5.78,66.57,23.47,66.57,23.47s3.27,15.73,1.22,18l-2,4.29s4.49,7.56,1.63,13-2.45,8.71-12.26,12.17c0,0-5.31.4-6.13-1.85s-.81-23.29-.81-23.29.61-7.56,10.62-3.88c0,0,3.27-25.14-16.14-31.68,0,0-18.58-7.65-30.24,11.65,0,0-3.89,1-3.48,18.8l.21,1.23S20,38.18,20,45.53s-.21,23.09-.21,23.09A3,3,0,0,1,16.71,70.87Z"/>
</svg>
