<svg id="Layer_12" data-name="Layer 12" xmlns="http://www.w3.org/2000/svg" width="68.02" height="73.89" viewBox="0 0 68.02 73.89">
  <defs>
    <style>
      .cls-1 {
        fill: #020202;
      }
    </style>
  </defs>
  <path class="cls-1" d="M46.91,13.35S64.68,25.76,57.16,47c0,0-.75,5.64-10.25,13.35,0,0-1.9,9.4,6.05,6.2s14-19.74,14-19.74,4.51-18.62-4.89-30.46S51.52,6.58,51.52,6.58,45.31,6.2,46.91,13.35Z"/>
  <path class="cls-1" d="M42.31,22.56V51.9s8.64-3,9.21-16.55C51.52,35.35,51,25.76,42.31,22.56Z"/>
  <polygon class="cls-1" points="0 22 12.03 22 33.66 0 33.66 73.89 11.47 51.9 0 51.9 0 22"/>
</svg>
