<svg id="Layer_16" data-name="Layer 16" xmlns="http://www.w3.org/2000/svg" width="67.98" height="73.89" viewBox="0 0 67.98 73.89">
  <defs>
    <style>
      .cls-1 {
        fill: #020202;
      }
    </style>
  </defs>
  <g>
    <polygon class="cls-1" points="33.66 21.61 33.66 0 23.28 10.56 33.66 21.61"/>
    <polygon class="cls-1" points="12.87 21.15 12.03 22 0 22 0 51.9 11.47 51.9 33.66 73.89 33.66 43.29 12.87 21.15"/>
  </g>
  <path class="cls-1" d="M43.58,23.23s8.76,5.58,6.84,16.26l-8.34-8.13V23.23Z"/>
  <path class="cls-1" d="M57.68,47.52l6.2,6.3s15.3-29.93-13.19-47c0,0-7,.64-4.3,6.63S61.74,19.21,57.68,47.52Z"/>
  <path class="cls-1" d="M33.66,43.29,48.28,58.73s-4.92,4.7.85,8.77a5.73,5.73,0,0,0,5.77-1.71l6.63,6.84,6.28-6.2L6.38,1,0,8.07,12.87,21.15"/>
</svg>
