<?xml version="1.0" encoding="utf-8"?>
<!-- Generator: Adobe Illustrator 26.1.0, SVG Export Plug-In . SVG Version: 6.00 Build 0)  -->
<svg version="1.1" id="ballon" xmlns="http://www.w3.org/2000/svg" xmlns:xlink="http://www.w3.org/1999/xlink" x="0px" y="0px"
	 viewBox="0 0 100 100" style="enable-background:new 0 0 100 100;" xml:space="preserve">
<style type="text/css">
	.st0{fill:#FFFFFF;}
	.st1{fill:#D19954;}
</style>
<g id="background">
	<circle class="st0" cx="48.2" cy="36.5" r="32.2"/>
	<polygon class="st0" points="36,82.7 58.7,82.5 56.2,97.4 38.5,97.7 	"/>
</g>
<g id="draw">
	<g id="lines">
		<path class="st1" d="M55.8,97.7H38.5c-0.2,0-0.3-0.1-0.3-0.3l-0.3-1.9c0,0,0,0,0-0.1L36.9,89l0,0L36,82.7c0,0,0-0.1-0.1-0.1
			L18.7,51.1c0-0.1,0-0.1,0-0.2c-2.2-4.5-3.3-9.4-3.2-14.5c0.1-8.6,3.6-16.6,9.7-22.6S39.4,4.5,48,4.7c0.8,0,1.7,0.1,2.5,0.1h0.5
			c0.1,0,0.2,0,0.2,0.1c3.7,0.4,7.2,1.5,10.5,3.1c0,0,0.1,0,0.1,0c0.2,0.1,0.4,0.2,0.6,0.3c3,1.6,5.7,3.6,8.1,6.1
			c6,6.2,9.2,14.3,9.1,22.9l0,0c-0.1,4.8-1.2,9.5-3.3,13.7c0,0,0,0.1,0,0.1l-0.2,0.4c-0.4,0.7-0.8,1.4-1.2,2.1L58.7,82.5
			c0,0,0,0,0,0.1l-2.5,14.8C56.1,97.5,56,97.6,55.8,97.7L55.8,97.7z M38.8,97h16.8l0.2-1.2l-17.2-0.1L38.8,97L38.8,97z M38.5,95
			l17.4,0.1l1-5.9H37.6L38.5,95L38.5,95z M37.5,88.6H57l1-5.8H36.7L37.5,88.6L37.5,88.6z M53.2,82.1h5l13.7-24.2
			c-2.6,3-5.8,5.5-9.3,7.4c-0.2,0.2-0.5,0.3-0.8,0.4c0,0-0.1,0-0.2,0c-0.3,0.2-0.7,0.3-1,0.5L53.2,82.1L53.2,82.1z M36.4,82.1h5.3
			L34,66c-4.2-1.9-8-4.8-11-8.4C23,57.6,36.4,82.1,36.4,82.1z M42.4,82.1h10.1l7.2-15.4c-2.6,1.1-5.4,1.8-8.2,2.1
			c0,0-0.1,0.1-0.2,0.1h-0.4c-1.3,0.1-2.5,0.2-3.8,0.2c-0.6,0-1.2,0-1.8-0.1c-3.7-0.2-7.2-1.1-10.5-2.5L42.4,82.1L42.4,82.1z
			 M46,68.2h4.4c0.2,0,0.5,0,0.7-0.1c0.8-2,5.5-14.7,5.2-29.3c-0.3-13.9-4.9-31.1-5.5-33.4c-0.1,0-0.2,0-0.3,0h-5.4
			c-0.6,1.7-4.2,13.1-5,31.7l0,0c-0.8,18.4,4.1,29.2,4.9,31C45.3,68.1,45.7,68.1,46,68.2z M34.2,65.3c0,0,0.1,0,0.1,0
			c2.8,1.3,6.3,2.2,10,2.7c-1.2-2.6-5.5-13.4-4.8-30.9c0.8-18,4.2-29.3,5-31.6C40.5,5.8,36.7,7,33.2,8.7v0
			C27.9,17,25,26.5,24.9,36.3l0,0c-0.1,9.7,2.9,19.6,8.9,28.9C33.9,65.3,34,65.3,34.2,65.3C34.1,65.3,34.1,65.3,34.2,65.3L34.2,65.3
			z M51.5,5.5c0.8,3.1,5.2,19.7,5.5,33.3c0.3,14-4.1,26.4-5.2,29.2c2.6-0.4,5.3-1.1,8.4-2.3c0,0,0,0,0.1,0c0.4-0.2,0.7-0.3,1.1-0.5
			c6.2-9.6,9.2-19.4,9.1-29.1c-0.2-9.3-3.2-18.5-9-27.5C58.4,7,55,6,51.5,5.5L51.5,5.5z M62.7,9.2C68.2,18,71,27,71.2,36.1
			c0.1,9.5-2.8,19.1-8.6,28.5c10.2-6.1,16.7-17,16.5-28.2C78.9,25.4,72.7,15.1,62.7,9.2L62.7,9.2z M32,9.5
			c-9.5,5.7-15.4,16-15.6,27.1c-0.1,11.3,6,21.9,16.3,28c-5.7-9.1-8.6-18.8-8.4-28.3C24.4,26.8,27,17.6,32,9.5L32,9.5z M39.8,37.1
			L39.8,37.1z M24.5,36.3L24.5,36.3z"/>
	</g>
	<g id="stars">
		<path class="st1" d="M26.9,27.4c0-5.3,4.3-9.6,9.6-9.6c2.1,0,4,0.6,5.5,1.7c-2-2-4.8-3.3-8-3.3c-6.2,0-11.2,5-11.2,11.2
			s5,11.2,11.2,11.2c3.1,0,5.9-1.3,8-3.3c-1.6,1.1-3.5,1.7-5.5,1.7C31.2,37,26.9,32.7,26.9,27.4z"/>
		<polygon class="st1" points="74.2,40.6 68.9,42.3 67.8,36.9 66.7,42.3 61.5,40.6 65.6,44.3 61.5,47.9 66.7,46.2 67.8,51.6 
			68.9,46.2 74.2,47.9 70,44.3 		"/>
		<polygon class="st1" points="53.3,46.3 48.1,48.1 47,42.7 45.9,48.1 40.6,46.3 44.8,50 40.6,53.7 45.9,51.9 47,57.3 48.1,51.9 
			53.3,53.7 49.2,50 		"/>
		<polygon class="st1" points="52.1,28.3 48.5,29.5 47.8,25.8 47,29.5 43.5,28.3 46.3,30.8 43.5,33.3 47,32.1 47.8,35.8 48.5,32.1 
			52.1,33.3 49.3,30.8 		"/>
		<polygon class="st1" points="35.7,53.9 33.2,54.7 32.7,52.2 32.2,54.7 29.8,53.9 31.7,55.5 29.8,57.2 32.2,56.4 32.7,58.9 
			33.2,56.4 35.7,57.2 33.7,55.5 		"/>
		<polygon class="st1" points="67.5,23.1 65.1,23.9 64.6,21.4 64.1,23.9 61.7,23.1 63.6,24.8 61.7,26.5 64.1,25.7 64.6,28.1 
			65.1,25.7 67.5,26.5 65.6,24.8 		"/>
	</g>
</g>
</svg>
