<?xml version="1.0" encoding="utf-8"?>
<!-- Generator: Adobe Illustrator 26.1.0, SVG Export Plug-In . SVG Version: 6.00 Build 0)  -->
<svg version="1.1" id="bird" xmlns="http://www.w3.org/2000/svg" xmlns:xlink="http://www.w3.org/1999/xlink" x="0px" y="0px"
	 viewBox="0 0 100 100" style="enable-background:new 0 0 100 100;" xml:space="preserve">
<style type="text/css">
	.st0{fill:#FFFFFF;}
	.st1{fill:#D19954;}
</style>
<path id="background" class="st0" d="M74.8,90.5c-0.1,0-0.2,0-0.3-0.1c-3.4-2.8-8-3.5-12.1-2.1L62,88.5c-3,0.9-6.1,1.4-9.2,1.3
	c-5.3,0-10.5-1.3-15.2-3.9l-0.3-0.2c-2.9-1.6-6.1-2.4-9.4-2.4c-0.8,0-1.5,0-2.3,0.2L25,83.6c-6.2,0.9-12.4-1.6-16.3-6.4
	c-0.1-0.2-0.1-0.4,0-0.6s0.4-0.2,0.6-0.1l0.6,0.3c4.6,1.8,9.7,1.9,14.3,0.2c-2.1-0.3-4.2-0.9-6.3-1.7l-1.3-0.5
	c-5.3-2.5-9.3-7-11.1-12.6c-0.1-0.2-0.1-0.4,0-0.6c0.1-0.1,0.2-0.1,0.2-0.2c0.2,0,0.4,0,0.5,0.2c8.1,7.3,18.6,11.3,29.5,11.3l1,0
	c4,0,7.3-3.3,7.3-7.4c0-0.2,0.2-5.3,6-8.5l0.1-0.1c6.2-3.4,11.5-8.1,15.4-14l0.1-0.1l0.7-0.7c6.7-5.9,11.2-11.9,14.7-19.5l0.3-0.8
	c0-0.1,0.2-0.2,0.3-0.3c4.2-1.8,8.6-3.1,13-3.9c0.2,0,0.3,0,0.4,0.1c0.1,0.1,0.2,0.2,0.2,0.4v2.2c0,20.5-10.3,39.1-27.7,49.8
	l-0.8,0.5c-0.4,0.3-0.8,0.5-0.9,0.6c-0.7,0.7-1.2,1.7-1.2,2.7c-0.1,1.3,0.5,2.6,1.6,3.3l0.1,0.1c4.7,2.1,7.9,6.4,8.6,11.4l0.1,1
	c0,0.2-0.1,0.4-0.2,0.5C74.9,90.5,74.8,90.5,74.8,90.5L74.8,90.5z"/>
<path id="line" class="st1" d="M74.7,90.4c-0.1,0-0.2,0-0.3-0.1c-3.4-2.8-8-3.5-12.1-2.1L62,88.4c-3,0.9-6.1,1.4-9.2,1.3
	c-5.3,0-10.5-1.3-15.2-3.9l-0.3-0.2c-2.9-1.6-6.1-2.4-9.4-2.4c-0.8,0-1.5,0-2.3,0.2l-0.5,0.1c-6.2,0.9-12.4-1.6-16.3-6.4
	c-0.1-0.2-0.1-0.4,0-0.6s0.4-0.2,0.6-0.1l0.6,0.3c4.6,1.8,9.7,1.9,14.3,0.2c-2.1-0.3-4.2-0.9-6.3-1.7l-1.3-0.5
	c-5.3-2.5-9.3-7-11.1-12.6c-0.1-0.2-0.1-0.4,0-0.6c0.1-0.1,0.2-0.1,0.2-0.2c0.2,0,0.4,0,0.5,0.2c8.1,7.4,18.6,11.4,29.6,11.4l1,0
	c4,0,7.3-3.3,7.3-7.4c0-0.2,0.2-5.3,6-8.5l0.1-0.1c6.2-3.4,11.5-8.1,15.4-14l0.1-0.1l0.7-0.7c6.7-5.9,11.2-11.9,14.7-19.5l0.3-0.8
	c0-0.1,0.2-0.2,0.3-0.3c4.2-1.8,8.6-3.1,13-3.9c0.2,0,0.3,0,0.4,0.1c0.1,0.1,0.2,0.2,0.2,0.4v2.2c0,20.5-10.3,39.1-27.7,49.8
	l-0.8,0.5c-0.4,0.3-0.8,0.5-0.9,0.6c-0.7,0.7-1.2,1.7-1.2,2.7c-0.1,1.3,0.5,2.6,1.6,3.3l0.1,0.1c4.7,2.1,7.9,6.4,8.6,11.4l0.1,1
	c0,0.2-0.1,0.4-0.2,0.5C74.8,90.4,74.8,90.4,74.7,90.4L74.7,90.4z M66.6,86.6c2.7,0,5.3,0.8,7.6,2.3c-0.7-4.7-3.7-8.7-8.1-10.6
	l-0.1,0l-0.2-0.1c-1.3-0.9-2.1-2.5-2-4.1c0-1.3,0.5-2.5,1.5-3.4l0.1,0c0,0,0.5-0.3,0.9-0.7l0.8-0.5c17-10.5,27.2-28.9,27.2-49v-1.6
	c-4.2,0.8-8.2,2-12.1,3.7l-0.3,0.7C78.4,30.9,73.8,37,67,43l-0.7,0.6c-4.3,6.2-9.2,10.6-15.7,14.2l-0.2,0.1
	c-5.3,2.9-5.5,7.6-5.5,7.7c0,4.6-3.7,8.3-8.3,8.3l-1,0c-10.5,0-20.8-3.7-28.9-10.5c1.9,4.6,5.5,8.3,10,10.5l1.2,0.5
	c2.4,0.9,4.9,1.5,7.5,1.8c0.1,0,0.2,0.1,0.3,0.2s0.1,0.2,0.1,0.3v0.1c0,0.2-0.1,0.3-0.3,0.4c-4.7,2.2-10.1,2.5-15.1,0.9
	c3.7,3.6,8.9,5.3,14,4.6l0.5-0.1c0.8-0.1,1.6-0.2,2.4-0.2c3.4,0,6.8,0.9,9.9,2.5l0.3,0.2c4.5,2.4,9.6,3.7,14.8,3.7
	c3,0,6-0.4,8.9-1.3l0.4-0.2C63.5,86.9,65,86.6,66.6,86.6L66.6,86.6z"/>
<path id="wind" class="st1" d="M49.5,48.3c0,0-30-0.1-30.1-0.1c-1.6,0.2-2.8,0.1-3.8-0.4l-0.9-0.5c-2.2-1.6-2.8-4.6-1.2-6.8
	c0,0,0,0,0-0.1c0.8-1,1.9-1.7,3.1-1.9c2.6-0.3,5,1.5,5.4,4.1v0.1c0.1,0.7-0.1,1.5-0.5,2c-0.5,0.6-1.1,1-1.9,1
	c-1.6,0.2-3-0.9-3.2-2.4v0c-0.1-0.7,0.3-1.5,1-1.6c0.7-0.1,1.3,0.4,1.4,1c0.1,0.7-0.4,1.3-1,1.4c-0.2,0-0.3,0.2-0.3,0.4
	c0,0.2,0.2,0.3,0.4,0.3h0c1.1-0.1,1.9-1,1.8-2.1s-1-1.9-2.1-1.8c-0.1,0-0.1,0-0.2,0c-0.5,0.1-1,0.4-1.3,0.8c-0.3,0.5-0.4,1-0.3,1.5
	v0.2c0.3,2,2.1,3.3,4,3c2-0.3,3.3-2,3.1-3.9v-0.1c-0.4-3-3.2-5.1-6.2-4.7l0,0c-1.4,0.2-2.8,1-3.6,2.1c-1.8,2.5-1.3,6,1.2,7.8
	c0,0,0.1,0.1,0.1,0.1l0.9,0.5c0.8,0.4,1.8,0.6,2.7,0.6h31.5c0.2,0,0.3-0.2,0.3-0.3C49.9,48.5,49.7,48.3,49.5,48.3L49.5,48.3z
	 M58.6,42.7c0,0-21.5-0.1-21.5-0.1c-0.9,0.2-1.8,0.1-2.6-0.3L33.8,42c-0.8-0.5-1.3-1.4-1.4-2.3c-0.4-1.8,0.7-3.5,2.5-3.9
	s3.5,0.7,3.9,2.5c0,0.2,0.1,0.3,0.1,0.5v0.1c0.2,1-0.6,2-1.6,2.1h-0.1c-1.1,0.2-2.1-0.6-2.2-1.7l0,0c-0.1-0.5,0.2-0.9,0.7-1
	c0.4-0.1,0.8,0.2,0.9,0.7s-0.2,0.8-0.7,0.9c-0.2,0-0.3,0.2-0.3,0.4c0,0.2,0.2,0.3,0.4,0.3c0.8-0.1,1.4-0.8,1.3-1.6
	c-0.1-0.8-0.8-1.4-1.6-1.3h-0.1c-0.8,0.2-1.4,1-1.2,1.8c0.2,1.5,1.5,2.5,3,2.3h0.1c1.4-0.2,2.4-1.4,2.2-2.8v-0.1
	c-0.3-2.2-2.3-3.7-4.5-3.4s-3.7,2.3-3.4,4.5l0,0c0.1,1.2,0.8,2.1,1.7,2.8l0.7,0.4c0.6,0.3,1.3,0.5,2,0.4h22.5c0.2,0,0.4-0.1,0.4-0.3
	c0-0.2-0.1-0.4-0.3-0.4C58.7,42.7,58.7,42.7,58.6,42.7L58.6,42.7L58.6,42.7z M44,39.5h8.5c0.2,0,0.3-0.2,0.3-0.3s-0.2-0.3-0.3-0.3
	H44c-0.2,0-0.3,0.2-0.3,0.3C43.6,39.4,43.8,39.5,44,39.5L44,39.5z M49,53c0,0-21.9,0-22,0c-0.9-0.1-1.8,0-2.6,0.4l-0.7,0.4
	c-1.9,1.3-2.3,3.9-1,5.7c0,0,0,0.1,0.1,0.1c0.7,1,2,1.6,3.2,1.6c2,0,3.7-1.5,4-3.5v-0.1c0.1-0.7-0.1-1.4-0.5-1.9
	c-0.5-0.5-1.1-0.9-1.8-1c-1.5-0.2-2.8,0.8-3,2.2v0c0,0.4,0,0.8,0.3,1.2c0.2,0.3,0.6,0.6,1,0.7c0.4,0,0.8,0,1.1-0.3
	c0.6-0.5,0.8-1.4,0.3-2.1c-0.2-0.3-0.6-0.6-1-0.6c-0.2,0-0.4,0.1-0.4,0.3c0,0.2,0.1,0.4,0.3,0.4c0.4,0.1,0.7,0.5,0.6,0.9
	c-0.1,0.4-0.5,0.7-0.9,0.7c-0.2,0-0.4-0.2-0.5-0.3s-0.2-0.5-0.1-0.7c0.1-0.5,0.3-1,0.8-1.3c0.4-0.3,0.9-0.5,1.5-0.4
	c0.5,0.1,1,0.3,1.3,0.7c0.3,0.4,0.5,0.9,0.4,1.4v0.1c-0.3,1.8-1.9,3.1-3.7,2.9c-0.9-0.1-1.6-0.6-2.2-1.3c-1.1-1.5-0.8-3.6,0.7-4.8h0
	l0.6-0.4c0.8-0.4,1.8-0.5,2.7-0.3c0.1,0,21.5-0.1,21.5-0.1c0.2,0,0.3-0.2,0.3-0.3S49.2,53.1,49,53L49,53L49,53z M42.9,56.9h-8.5
	c-0.2,0-0.3,0.2-0.3,0.4c0,0.2,0.2,0.3,0.3,0.3h8.5c0.2,0,0.3-0.2,0.3-0.4C43.2,57.1,43.1,56.9,42.9,56.9z"/>
</svg>
