<?xml version="1.0" encoding="utf-8"?>
<!-- Generator: Adobe Illustrator 26.1.0, SVG Export Plug-In . SVG Version: 6.00 Build 0)  -->
<svg version="1.1" id="night" xmlns="http://www.w3.org/2000/svg" xmlns:xlink="http://www.w3.org/1999/xlink" x="0px" y="0px"
	 viewBox="0 0 176.8 61.7" style="enable-background:new 0 0 176.8 61.7;" xml:space="preserve">
<style type="text/css">
	.st0{fill:#666666;}
	.st1{fill:#FFFFFF;}
</style>
<g id="button_night">
	<path id="background" class="st0" d="M172.7,31.8L172.7,31.8c0,16.2-13.3,29.5-29.5,29.5H33.1C16.9,61.3,3.6,48,3.6,31.8l0,0
		c0-16.2,13.3-29.5,29.5-29.5h110.1C159.5,2.3,172.7,15.6,172.7,31.8z"/>
	<circle id="circle" class="st1" cx="33.6" cy="32" r="20.5"/>
	<path id="night_00000151502173389828407710000004406496105808190857_" class="st1" d="M65.7,25.3v18.6h-2.2V21.1h1.9l14.9,18.9
		V21.2h2.2v22.7h-2.1L65.7,25.3z M88.2,43.9V21.1h2.2v22.7H88.2z M105.2,44c-1.5,0-2.9-0.3-4.2-1c-1.3-0.7-2.4-1.5-3.4-2.6
		s-1.7-2.3-2.2-3.7c-0.5-1.4-0.8-2.8-0.8-4.2c0-1.5,0.3-3,0.8-4.4c0.5-1.4,1.3-2.6,2.2-3.7c0.9-1.1,2-1.9,3.3-2.5
		c1.3-0.6,2.7-0.9,4.2-0.9c2.2,0,4.1,0.5,5.5,1.4c1.4,0.9,2.5,2.1,3.2,3.6l-1.7,1.2c-0.7-1.4-1.7-2.4-2.9-3.1c-1.2-0.7-2.6-1-4.1-1
		c-1.3,0-2.4,0.3-3.4,0.8c-1,0.5-1.9,1.2-2.6,2.1c-0.7,0.9-1.3,1.9-1.6,3s-0.6,2.3-0.6,3.5c0,1.3,0.2,2.5,0.6,3.6
		c0.4,1.1,1,2.2,1.8,3c0.8,0.9,1.7,1.6,2.7,2.1c1,0.5,2.1,0.8,3.3,0.8c1.4,0,2.7-0.3,3.9-1c1.2-0.7,2.4-1.8,3.6-3.2v2.4
		C110.7,42.7,108.2,44,105.2,44z M112.5,34.4h-5.1v-1.7h6.9v11.2h-1.9V34.4z M136.9,21.1v22.7h-2.2V33.2h-13.5v10.6H119V21.1h2.2
		v10.1h13.5V21.1H136.9z M158.8,23.1h-8.1v20.7h-2.2V23.1h-8.1v-2h18.4V23.1z"/>
</g>
</svg>
