<?xml version="1.0" encoding="utf-8"?>
<!-- Generator: Adobe Illustrator 26.1.0, SVG Export Plug-In . SVG Version: 6.00 Build 0)  -->
<svg version="1.1" id="butterfly" xmlns="http://www.w3.org/2000/svg" xmlns:xlink="http://www.w3.org/1999/xlink" x="0px" y="0px"
	 viewBox="0 0 100 100" style="enable-background:new 0 0 100 100;" xml:space="preserve">
<style type="text/css">
	.st0{fill:#D19954;}
	.st1{fill:#FFFFFF;}
</style>
<path id="body" class="st0" d="M49.8,55.7c-1.5,0-2.6-1.2-2.6-2.6s1.2-2.6,2.6-2.6s2.6,1.2,2.6,2.6l0,0
	C52.5,54.5,51.3,55.7,49.8,55.7z M49.8,51c-1.1,0-2,0.9-2,2s0.9,2,2,2s2-0.9,2-2S50.9,51,49.8,51z M49.8,59.1c-1.1,0-2-0.9-2-2
	s0.9-2,2-2s2,0.9,2,2C51.8,58.2,50.9,59.1,49.8,59.1L49.8,59.1z M49.8,55.7c-0.7,0-1.4,0.6-1.4,1.4s0.6,1.4,1.4,1.4s1.4-0.6,1.4-1.4
	l0,0C51.2,56.3,50.6,55.7,49.8,55.7z M49.8,62c-1,0-1.8-0.8-1.8-1.8s0.8-1.8,1.8-1.8s1.8,0.8,1.8,1.8l0,0C51.6,61.2,50.8,62,49.8,62
	L49.8,62z M49.8,59.1c-0.6,0-1.2,0.5-1.2,1.2s0.5,1.2,1.2,1.2s1.2-0.5,1.2-1.2l0,0C50.9,59.6,50.4,59.1,49.8,59.1L49.8,59.1z
	 M49.8,74.2c-1.3,0-1.9-3.3-1.9-6.4s0.6-6.4,1.9-6.4s1.9,3.4,1.9,6.4S51.1,74.2,49.8,74.2L49.8,74.2z M49.8,62
	c-0.4,0-1.3,2.1-1.3,5.8s0.8,5.8,1.3,5.8s1.3-2.1,1.3-5.8S50.2,62,49.8,62C49.8,62,49.8,62,49.8,62z M48.4,50.7
	c0.2-0.1,0.2-0.3,0.2-0.5C44.6,42.1,38,35.5,29.9,31.6c-0.1-0.1-0.4,0-0.5,0.1s0,0.4,0.1,0.4c8,3.9,14.5,10.4,18.4,18.4
	c0,0.1,0.2,0.2,0.3,0.2C48.3,50.7,48.3,50.7,48.4,50.7L48.4,50.7z M51.8,50.5c3.9-8,10.3-14.5,18.3-18.4c0.2-0.1,0.2-0.3,0.2-0.5
	c-0.1-0.1-0.3-0.2-0.4-0.1c-8.2,3.9-14.7,10.5-18.6,18.7c-0.1,0.2,0,0.4,0.2,0.5c0,0,0.1,0,0.2,0C51.7,50.7,51.8,50.7,51.8,50.5
	L51.8,50.5L51.8,50.5z"/>
<path id="back_x5F_left" class="st1" d="M34.9,83.9c-7.4,0-13.4-6-13.4-13.4c0-4.5,2.3-8.8,6.1-11.3c-0.4,0-0.8,0.1-1.2,0.1
	c-6.2,0-11.4-4.7-11.9-10.8c0-0.3-0.2-1.5-0.2-1.5v0c0-4.4-2.7-8.3-6.8-9.9l-0.3-0.1c-1.4-0.2-2.5-1.5-2.3-2.9
	C5,33,5.6,32.2,6.5,31.8h0l1-0.3c8.7-2.8,18.2-0.7,24.9,5.4l1.2,1c7,4.8,11.8,12.3,13.1,20.8l1,7.5c0.3,1.4,0.4,2.9,0.5,4.4
	C48.2,77.9,42.3,83.9,34.9,83.9L34.9,83.9z M39,69.9c-1.9-4.2-6.9-6-11.1-4.1l-0.1,0.1c-2.6,1.2-3.7,4.2-2.4,7
	c1.2,2.7,4.4,3.9,7.1,2.6l0.1,0c0.7-0.3,1.3-0.9,1.6-1.6c0.3-0.7,0.4-1.5,0-2.2c-0.6-1.4-2.3-2-3.7-1.4s-2,2.3-1.4,3.7
	c0.1,0.2,0.3,0.3,0.4,0.2s0.3-0.3,0.2-0.4v0c-0.5-1.1,0-2.3,1-2.8c1.1-0.5,2.3,0,2.8,1c0.2,0.5,0.2,1.2,0,1.7
	c-0.3,0.6-0.7,1-1.2,1.3l-0.1,0c-2.3,1.1-5.1,0-6.2-2.3c-1.1-2.4-0.2-5.1,2.1-6.1l0.1-0.1c3.8-1.8,8.4-0.1,10.1,3.8
	c1.8,3.8,0.1,8.4-3.8,10.1c-2,0.9-4.2,0.9-6.2,0.1l-1.5-0.7c-0.9-0.6-1.8-1.4-2.6-2.2c0.6,0.8,1.2,1.6,2,2.3
	c0.2,0.2,0.5,0.4,0.6,0.6l1.1,0.6c1,0.4,2.1,0.6,3.2,0.7c1.2,0,2.4-0.3,3.5-0.7C39,79,40.9,74.1,39,69.9
	C37.7,67.1,37.7,67.1,39,69.9z"/>
<path id="wing_x5F_left" class="st0" d="M34.9,83.9c-7.4,0-13.4-6-13.4-13.4c0-4.5,2.3-8.8,6.1-11.3c-0.4,0-0.8,0.1-1.2,0.1
	c-6.2,0-11.4-4.7-11.9-10.8c0-0.3-0.2-1.5-0.2-1.5v0c0-4.4-2.7-8.3-6.8-9.9l-0.3-0.1c-1.4-0.2-2.5-1.5-2.3-2.9
	C5,33,5.6,32.2,6.5,31.8h0l1-0.3c8.7-2.8,18.2-0.7,24.9,5.4l1.2,1c7,4.8,11.8,12.3,13.1,20.8l1,7.5c0.3,1.4,0.4,2.9,0.5,4.4
	C48.2,77.9,42.3,83.9,34.9,83.9L34.9,83.9z M29.7,58.1c0.2,0,0.3,0.2,0.3,0.3c0,0.2-0.1,0.3-0.2,0.3c-6.5,2.8-9.4,10.3-6.7,16.7
	s10.3,9.4,16.7,6.7c4.7-2,7.7-6.6,7.7-11.7c-0.1-1.4-0.2-2.9-0.5-4.3l0,0l-1-7.4c-1.3-8.3-6-15.6-12.8-20.4l-1.3-1
	c-6.6-6-15.9-8-24.3-5.2l-1,0.3c-1,0.5-1.4,1.6-1,2.6c0.3,0.7,0.9,1.1,1.6,1.2h0l0.3,0.1C12,38,14.9,42.1,15,46.8
	c0,0.2,0.2,1.2,0.2,1.5c0.6,6.2,6.1,10.8,12.2,10.2c0.7-0.1,1.5-0.2,2.2-0.4L29.7,58.1L29.7,58.1z M39,69.9c-1.9-4.2-6.9-6-11.1-4.1
	l-0.1,0.1c-2.6,1.2-3.7,4.2-2.4,7c1.2,2.7,4.4,3.9,7.1,2.6l0.1,0c0.7-0.3,1.3-0.9,1.6-1.6c0.3-0.7,0.4-1.5,0-2.2
	c-0.6-1.4-2.3-2-3.7-1.4s-2,2.3-1.4,3.7c0.1,0.2,0.3,0.3,0.4,0.2s0.3-0.3,0.2-0.4v0c-0.5-1.1,0-2.3,1-2.8c1.1-0.5,2.3,0,2.8,1
	c0.2,0.5,0.2,1.2,0,1.7c-0.3,0.6-0.7,1-1.2,1.3l-0.1,0c-2.3,1.1-5.1,0-6.2-2.3c-1.1-2.4-0.2-5.1,2.1-6.1l0.1-0.1
	c3.8-1.8,8.4-0.1,10.1,3.8c1.8,3.8,0.1,8.4-3.8,10.1c-2,0.9-4.2,0.9-6.2,0.1l-1.5-0.7c-0.9-0.6-1.8-1.4-2.6-2.2
	c0.6,0.8,1.2,1.6,2,2.3c0.2,0.2,0.5,0.4,0.6,0.6l1.1,0.6c1,0.4,2.1,0.6,3.2,0.7c1.2,0,2.4-0.3,3.5-0.7C39,79,40.9,74.1,39,69.9
	C37.7,67.1,37.7,67.1,39,69.9z"/>
<path id="back_x5F_right" class="st1" d="M51.4,70.5c0.1-1.5,0.2-2.9,0.5-4.4l1-7.5c1.3-8.4,6.1-15.9,13.1-20.8l1.2-1
	c6.8-6.1,16.2-8.1,24.9-5.4l1,0.3h0c1.3,0.6,2,2.1,1.4,3.5c-0.4,0.9-1.2,1.5-2.1,1.6l-0.3,0.1c-4.1,1.6-6.8,5.5-6.8,9.9v0
	c0,0-0.2,1.2-0.2,1.5c-0.5,6.1-5.7,10.9-11.9,10.8c-0.4,0-0.8,0-1.2-0.1c6.2,4,8,12.3,4,18.5c-4,6.2-12.3,8-18.5,4
	C53.7,79.3,51.4,75.1,51.4,70.5L51.4,70.5z M65,80.9c1.1,0.5,2.3,0.7,3.5,0.7c1.1,0,2.2-0.2,3.2-0.6l1.2-0.6
	c0.2-0.2,0.4-0.4,0.6-0.6c0.7-0.7,1.4-1.4,2-2.3c-0.8,0.8-1.7,1.5-2.6,2.2l-1.4,0.7c-2,0.8-4.2,0.8-6.2-0.1
	c-3.8-1.8-5.5-6.2-3.8-10.1c1.8-3.8,6.3-5.5,10.1-3.8l0,0l0.2,0.1c2.3,1,3.2,3.7,2.1,6.1C72.7,75,70,76.1,67.6,75l-0.1,0
	c-0.6-0.3-1-0.7-1.2-1.3c-0.3-0.5-0.3-1.1,0-1.7c0.5-1.1,1.8-1.6,2.8-1c1.1,0.5,1.6,1.8,1,2.8c-0.1,0.2,0,0.4,0.2,0.4s0.4,0,0.4-0.2
	v0c0.6-1.4,0-3.1-1.4-3.7c-0.7-0.3-1.4-0.3-2.1-0.1c-0.7,0.3-1.3,0.8-1.6,1.4c-0.3,0.7-0.3,1.5,0,2.2c0.3,0.7,0.9,1.3,1.6,1.6l0.1,0
	c2.7,1.2,5.8,0,7.1-2.6c1.3-2.8,0.2-5.8-2.4-7l-0.2-0.1c-4.1-1.9-9.1-0.2-11,4c-1.9,4.1-0.2,9.1,4,11C64.9,80.9,65,80.9,65,80.9
	L65,80.9L65,80.9z"/>
<path id="wing_x5F_right" class="st0" d="M51.4,70.5c0.1-1.5,0.2-2.9,0.5-4.4l1-7.5c1.3-8.4,6.1-15.9,13.1-20.8l1.2-1
	c6.8-6.1,16.2-8.1,24.9-5.4l1,0.3h0c1.3,0.6,2,2.1,1.4,3.5c-0.4,0.9-1.2,1.5-2.1,1.6l-0.3,0.1c-4.1,1.6-6.8,5.5-6.8,9.9v0
	c0,0-0.2,1.2-0.2,1.5c-0.5,6.1-5.7,10.9-11.9,10.8c-0.4,0-0.8,0-1.2-0.1c6.2,4,8,12.3,4,18.5c-4,6.2-12.3,8-18.5,4
	C53.7,79.3,51.4,75.1,51.4,70.5L51.4,70.5z M70,58.2c5.9,1.8,12.2-1.6,14-7.6c0.2-0.7,0.3-1.4,0.4-2.2c0-0.3,0.2-1.4,0.2-1.5
	c0-4.7,2.9-8.9,7.3-10.5l0.3-0.1h0.1c1.1-0.1,1.9-1.1,1.8-2.2c-0.1-0.7-0.5-1.3-1.2-1.6l-1-0.3c-8.4-2.7-17.7-0.7-24.3,5.2l-1.2,1
	c-6.9,4.7-11.5,12.1-12.9,20.3l-1,7.4l0,0c-0.2,1.4-0.4,2.9-0.5,4.3c0,7,5.7,12.7,12.7,12.7s12.7-5.7,12.7-12.7
	c0-5.1-3.1-9.7-7.7-11.7c-0.2-0.1-0.3-0.3-0.2-0.5c0-0.1,0.2-0.2,0.3-0.2L70,58.2L70,58.2z M65,80.9c1.1,0.5,2.3,0.7,3.5,0.7
	c1.1,0,2.2-0.2,3.2-0.6l1.2-0.6c0.2-0.2,0.4-0.4,0.6-0.6c0.7-0.7,1.4-1.4,2-2.3c-0.8,0.8-1.7,1.5-2.6,2.2l-1.4,0.7
	c-2,0.8-4.2,0.8-6.2-0.1c-3.8-1.8-5.5-6.2-3.8-10.1c1.8-3.8,6.2-5.5,10.1-3.8l0,0l0.2,0.1c2.3,1,3.2,3.7,2.1,6.1
	C72.7,75,70,76.1,67.6,75l-0.1,0c-0.6-0.3-1-0.7-1.2-1.3c-0.3-0.5-0.3-1.1,0-1.7c0.5-1.1,1.8-1.6,2.8-1c1.1,0.5,1.6,1.8,1,2.8
	c-0.1,0.2,0,0.4,0.2,0.4s0.4,0,0.4-0.2v0c0.6-1.4,0-3.1-1.4-3.7c-0.7-0.3-1.4-0.3-2.1-0.1c-0.7,0.3-1.3,0.8-1.6,1.4
	c-0.3,0.7-0.3,1.5,0,2.2c0.3,0.7,0.9,1.3,1.6,1.6l0.1,0c2.7,1.2,5.8,0,7.1-2.6c1.3-2.8,0.2-5.8-2.4-7l-0.2-0.1
	c-4.1-1.9-9.1-0.2-11,4c-1.9,4.1-0.2,9.1,4,11C64.9,80.9,65,80.9,65,80.9L65,80.9L65,80.9z"/>
</svg>
