<?xml version="1.0" encoding="utf-8"?>
<!-- Generator: Adobe Illustrator 26.1.0, SVG Export Plug-In . SVG Version: 6.00 Build 0)  -->
<svg version="1.1" id="cloud" xmlns="http://www.w3.org/2000/svg" xmlns:xlink="http://www.w3.org/1999/xlink" x="0px" y="0px"
	 viewBox="0 0 100 100" style="enable-background:new 0 0 100 100;" xml:space="preserve">
<style type="text/css">
	.st0{fill:#FFFFFF;}
	.st1{fill:#D19954;}
</style>
<path id="background" class="st0" d="M48.2,75.9c-0.5,0-1,0-1.6,0c-3.6-0.2-7.1-1.2-10.3-3.1c0,0-0.1,0-0.2,0s-0.1,0-0.2,0
	c-2.9,1.6-6.1,2.5-9.5,2.5c-0.4,0-0.8,0-1.2,0C14.5,74.5,6.3,65.2,7,54.4c0.7-10.3,9.1-18.2,19.5-18.3c0.4,0,0.8,0,1.2,0
	c0.7,0,1.3,0.1,2,0.2h0.1c0.1,0,0.2,0,0.3-0.1c4.5-5.2,11-8.2,18-8.2c0.5,0,1,0,1.6,0c9.1,0.5,17.2,6.3,20.6,14.8
	c0.1,0.2,0.2,0.2,0.3,0.2h0.5c0.3,0,0.6,0,0.9,0c5.1,0.3,9.7,3.3,12.1,7.8c0.1,0.1,0.2,0.2,0.3,0.2h0.4c4.9,0.4,8.6,4.7,8.1,9.6
	c-0.4,4.5-4.1,8-8.7,8.1h-0.6c-0.8,0-1.6-0.2-2.3-0.5c0,0-0.1,0-0.1,0c-0.1,0-0.2,0-0.3,0.1c-2.7,2.5-6.2,3.9-9.9,3.9
	c-0.3,0-0.7,0-0.9,0c-2.3-0.2-4.5-0.8-6.5-2c-0.2-0.1-0.3-0.1-0.4,0C59,74,53.6,75.9,48.2,75.9L48.2,75.9z"/>
<path id="line" class="st1" d="M48.1,28.9c0.5,0,1,0,1.5,0c8.8,0.6,16.5,6.1,19.9,14.3c0.1,0.2,0.3,0.4,0.6,0.4h0.5
	c0.3,0,0.6,0,0.9,0c4.9,0.3,9.3,3.1,11.6,7.5c0.1,0.2,0.3,0.3,0.6,0.3H84c4.6,0.3,8.2,4.2,7.9,8.9c-0.2,4.5-4,8-8.4,7.9H83
	c-0.7,0-1.5-0.2-2.2-0.4c-0.1,0-0.1,0-0.2,0c-0.2,0-0.3,0.1-0.5,0.2c-2.6,2.4-6,3.7-9.5,3.7c-0.3,0-0.6,0-0.9,0
	c-2.2-0.1-4.3-0.8-6.2-1.9c-0.1-0.1-0.2-0.1-0.3-0.1s-0.3,0.1-0.4,0.1c-4.1,3.4-9.3,5.2-14.6,5.2c-0.5,0-1,0-1.5,0
	c-3.5-0.2-6.9-1.2-9.9-3c-0.2-0.1-0.5-0.1-0.7,0c-2.8,1.6-5.9,2.4-9.1,2.4c-0.4,0-0.8,0-1.2,0C15.3,73.8,7.4,64.9,8,54.5
	c0.6-10,8.9-17.8,18.9-17.7c0.4,0,0.8,0,1.2,0c0.6,0,1.3,0.1,1.9,0.2h0.1c0.2,0,0.4-0.1,0.5-0.2C35.1,31.8,41.4,28.9,48.1,28.9
	 M48.1,28.2c-6.9,0-13.4,3-17.9,8.2c-0.7-0.1-1.3-0.2-2-0.2c-0.4,0-0.9,0-1.3,0c-10.8,0-19.5,8.7-19.5,19.5s8,18.8,18.3,19.4
	c0.4,0,0.9,0,1.3,0c3.3,0,6.6-0.8,9.4-2.5c3.1,1.8,6.6,2.8,10.2,3c0.5,0,1,0,1.5,0c5.5,0,10.7-1.9,15-5.3c2,1.2,4.2,1.9,6.5,2
	c0.3,0,0.6,0,0.9,0c3.7,0,7.2-1.4,10-3.9c0.7,0.2,1.6,0.4,2.3,0.5c0.2,0,0.4,0,0.6,0c5,0,9.1-4.1,9.1-9.1s-3.8-8.8-8.5-9.1h-0.4
	c-2.4-4.6-7-7.5-12.1-7.8c-0.3,0-0.6,0-0.9,0h-0.5c-3.4-8.4-11.4-14.1-20.5-14.7C49.1,28.3,48.6,28.3,48.1,28.2L48.1,28.2L48.1,28.2
	z M55.2,43.3c0-2.7-0.8-5.2-2.3-7.4l0,0l-0.4-0.5c-1.9-2-4.6-3.2-7.4-3.2c-5.5,0-9.9,4.5-9.9,9.9S39.6,52,45,52h0.2
	c3.5,0,6.1-2.7,6.1-6.4s-2.9-6.4-6.4-6.4h-0.1c-1.9,0-3.6,1.5-3.6,3.3c0,1.8,1.5,3.3,3.3,3.3s3.3-1.5,3.3-3.3l0,0
	c0-0.2-0.1-0.3-0.3-0.3c-0.2,0-0.3,0.1-0.3,0.3c0,1.5-1.2,2.6-2.6,2.6s-2.6-1.2-2.6-2.6l0,0c0-1.5,1.5-2.6,2.9-2.6H45
	c3.1,0,5.7,2.5,5.7,5.7s-2.3,5.7-5.4,5.7h-0.2c-5.1,0.1-9.3-4-9.4-9s4-9.3,9-9.4H45c2.6,0,5.1,1.1,6.9,3l0.4,0.5
	c1.4,2,2.2,4.5,2.2,7c0,6.9-5.7,12.5-12.8,12.5S29,50.3,29,43.4c0-2.5,0.7-4.9,2.2-7c0.1-0.1,0.1-0.3-0.1-0.5l0,0
	c-0.1-0.1-0.4-0.1-0.5,0.1l0,0c-1.5,2.2-2.3,4.7-2.3,7.3c0,7.3,6,13.2,13.4,13.2S55.3,50.6,55.2,43.3L55.2,43.3L55.2,43.3z
	 M88.3,58.6c0-2.9-2.4-5.3-5.4-5.3h-0.1c-1.9,0-3.3,1.5-3.3,3.5s1.6,3.5,3.5,3.5h0c1.1,0,2.1-0.9,2.1-1.9s-0.8-1.9-1.9-1.9
	s-1.9,0.8-1.9,1.9c0.1,0.2,0.2,0.3,0.5,0.2c0.1,0,0.2-0.1,0.2-0.2c0-0.7,0.6-1.2,1.3-1.1c0.6,0,1.1,0.5,1.1,1.1
	c0,0.7-0.7,1.2-1.4,1.2h0c-1.6,0-2.8-1.3-2.8-2.8s1.1-2.8,2.7-2.8h0.1c2.6-0.1,4.7,1.9,4.8,4.5s-1.9,4.7-4.5,4.8h-0.2
	c-1.3,0-2.6-0.5-3.5-1.5l-0.2-0.2c-0.7-1-1.1-2.3-1.1-3.5c0-3.5,2.9-6.4,6.5-6.4c0.2,0,0.3-0.1,0.3-0.3c0-0.2-0.1-0.3-0.3-0.3h-0.1
	c-3.9,0-7.1,3.1-7.1,7c0,1.4,0.4,2.8,1.2,3.9l0,0l0.2,0.2c1,1.1,2.5,1.7,4,1.7C85.8,64,88.2,61.7,88.3,58.6
	C88.3,56.6,88.3,56.6,88.3,58.6L88.3,58.6L88.3,58.6z M36.7,72.4c1.4-1.4,2.2-2.8,2.5-4.2l0.1-1.2c0.1-3.6-2.7-6.5-6.2-6.6h-0.1
	c-1.7,0-3.3,0.6-4.5,1.8c-2.4,2.5-2.4,6.5,0.1,9l0.1,0.1c0.7,0.7,1.8,1.2,2.8,1.1c1.1-0.1,2.1-0.5,2.8-1.3c1.6-1.6,1.6-4.2,0-5.8
	l0,0c-0.9-0.9-2.4-0.9-3.2-0.1c-0.9,0.8-0.9,2.2-0.1,3.1s2.2,0.9,3.1,0.1l0.1-0.1c0.1-0.1,0.1-0.3,0-0.5c-0.1-0.1-0.3-0.1-0.5,0l0,0
	c-0.6,0.6-1.5,0.5-2.1-0.1c-0.5-0.6-0.5-1.4,0-2c0.6-0.6,1.7-0.4,2.3,0.1l0,0c1.3,1.3,1.3,3.5,0,4.8c-0.6,0.6-1.5,1-2.4,1.1
	c-0.9,0-1.7-0.3-2.3-0.9L29,70.8c-2.3-2.2-2.3-5.8-0.1-8l0,0c1.1-1.1,2.5-1.6,4-1.6c3.2,0,5.8,2.6,5.7,5.8V67l-0.1,1.2
	c-0.2,1.3-1,2.5-2.3,3.8c-0.1,0.1-0.1,0.3,0,0.5c0.1,0.1,0.1,0.1,0.2,0.1C36.6,72.5,36.6,72.5,36.7,72.4L36.7,72.4z"/>
</svg>
