<?xml version="1.0" encoding="utf-8"?>
<!-- Generator: Adobe Illustrator 26.1.0, SVG Export Plug-In . SVG Version: 6.00 Build 0)  -->
<svg version="1.1" id="moon" xmlns="http://www.w3.org/2000/svg" xmlns:xlink="http://www.w3.org/1999/xlink" x="0px" y="0px"
	 viewBox="0 0 100 100" style="enable-background:new 0 0 100 100;" xml:space="preserve">
<style type="text/css">
	.st0{fill:#D19954;}
</style>
<path id="shine" class="st0" d="M8.7,51h13.7 M22.7,51c0-0.2-0.1-0.4-0.4-0.4H8.7c-0.2,0-0.4,0.2-0.4,0.4s0.1,0.4,0.4,0.4h13.7
	C22.5,51.4,22.7,51.2,22.7,51z M79.3,51H93 M93.3,51c0-0.2-0.2-0.4-0.4-0.4H79.3c-0.2,0-0.4,0.2-0.4,0.4s0.2,0.4,0.4,0.4H93
	C93.1,51.4,93.3,51.2,93.3,51z M50.8,8.9v11.3 M51.2,20.2V8.9c0-0.2-0.2-0.4-0.4-0.4s-0.4,0.1-0.4,0.4v11.3c0,0.2,0.2,0.4,0.4,0.4
	S51.2,20.4,51.2,20.2z M50.8,81.8v11.3 M51.2,93.1V81.8c0-0.2-0.2-0.4-0.4-0.4s-0.4,0.2-0.4,0.4v11.3c0,0.2,0.2,0.4,0.4,0.4
	S51.2,93.3,51.2,93.1z M28.3,28.5l7,7 M35.7,35.9c0.2-0.2,0.2-0.4,0-0.5l0,0l-7-7c-0.2-0.1-0.4-0.1-0.5,0.1c-0.1,0.1-0.1,0.3,0,0.4
	l7.1,7.1C35.3,36,35.5,36,35.7,35.9z M23,23.1l3.1,3.1 M26.3,26.5c0.1-0.1,0.1-0.4,0-0.5l-3.1-3.1c-0.1-0.1-0.4-0.1-0.5,0
	s-0.1,0.4,0,0.5l3.1,3.1C26,26.7,26.2,26.7,26.3,26.5z M66.3,66.4l7.1,7.1 M73.6,73.8c0.2-0.2,0.2-0.4,0-0.5l-7.1-7.1
	c-0.2-0.2-0.4-0.2-0.5,0s-0.2,0.4,0,0.5l7.1,7.1c0.1,0.1,0.2,0.1,0.3,0.1C73.4,73.9,73.5,73.9,73.6,73.8L73.6,73.8L73.6,73.8z
	 M78.7,78.9l-3.1-3.1 M79,79.2c0.2-0.2,0.2-0.4,0-0.5l0,0l-3.1-3.1c-0.2-0.2-0.4-0.1-0.5,0s-0.1,0.3,0,0.5l3.1,3.1
	C78.6,79.3,78.8,79.3,79,79.2L79,79.2z M35.4,66.4L28,73.8 M28.3,74.1l7.4-7.4c0.2-0.2,0.2-0.4,0-0.5s-0.4-0.2-0.5,0l0,0l-7.4,7.4
	c-0.1,0.2-0.1,0.4,0,0.5c0.1,0.1,0.1,0.1,0.3,0.1S28.2,74.1,28.3,74.1L28.3,74.1L28.3,74.1z M73.3,28.5l-7.1,7 M66.5,35.9l7.1-7
	c0.1-0.2,0.1-0.4-0.1-0.5c-0.1-0.1-0.3-0.1-0.4,0L66,35.3c-0.2,0.2-0.2,0.4,0,0.5l0,0C66.1,36,66.4,36,66.5,35.9L66.5,35.9z
	 M78.7,23.1l-3.1,3.1 M75.9,26.5l3.1-3.1c0.2-0.1,0.2-0.4,0-0.5s-0.4-0.1-0.5,0l-3.1,3.1c-0.2,0.1-0.2,0.4,0,0.5
	c0.1,0.1,0.2,0.1,0.3,0.1C75.7,26.7,75.8,26.6,75.9,26.5L75.9,26.5z M23,78.9l3.1-3.1 M23.2,79.2l3.1-3.1c0.1-0.2,0.1-0.4,0-0.5
	c-0.1-0.1-0.3-0.1-0.5,0l-3.1,3.1c-0.1,0.2-0.1,0.4,0,0.5l0,0C22.8,79.3,23.1,79.3,23.2,79.2L23.2,79.2z M21.1,38.4l9.6,4.1
	 M31.1,42.6c0.1-0.2,0-0.4-0.2-0.5l0,0L21.3,38c-0.2-0.1-0.4,0-0.5,0.2l0,0c-0.1,0.2,0,0.4,0.2,0.5l9.6,4.1c0,0,0.1,0,0.1,0
	C30.9,42.8,31.1,42.8,31.1,42.6C31.1,42.6,31.1,42.6,31.1,42.6z M70.9,59.5l9.6,4.1 M80.8,63.8c0.1-0.2,0-0.4-0.2-0.5L71,59.2
	c-0.2-0.1-0.4,0-0.5,0.2s0,0.4,0.2,0.5h0l9.6,4.1c0,0,0.1,0,0.2,0C80.6,64,80.8,63.9,80.8,63.8C80.8,63.8,80.8,63.8,80.8,63.8z
	 M59.3,31l4.1-9.6 M59.7,31.1l4.1-9.6c0.1-0.2,0-0.4-0.2-0.5s-0.4,0-0.5,0.2l0,0L59,30.8c-0.1,0.2,0,0.4,0.2,0.5c0,0,0.1,0,0.2,0
	C59.5,31.3,59.6,31.2,59.7,31.1z M42.2,71.1l-4.1,9.6 M38.5,80.8l4.1-9.6c0.1-0.2,0-0.4-0.2-0.5s-0.4,0-0.5,0.2l0,0l-4.1,9.6
	c-0.1,0.2,0,0.4,0.2,0.5c0,0,0.1,0,0.2,0C38.3,81.1,38.5,80.9,38.5,80.8z M38.8,21.1l3.9,9.7 M42.8,31.1c0.2-0.1,0.3-0.3,0.2-0.5
	l0,0l-3.9-9.7c-0.1-0.2-0.3-0.3-0.5-0.2l0,0c-0.2,0.1-0.3,0.3-0.2,0.5l3.9,9.7c0.1,0.1,0.2,0.2,0.3,0.2
	C42.7,31.2,42.8,31.2,42.8,31.1z M58.9,71.2l3.9,9.7 M63,81.2c0.2-0.1,0.3-0.3,0.2-0.5l0,0l-3.9-9.7c-0.1-0.2-0.3-0.3-0.5-0.2
	s-0.3,0.3-0.2,0.4l3.9,9.7c0.1,0.2,0.2,0.2,0.3,0.2C62.9,81.3,63,81.3,63,81.2L63,81.2z M80.7,39L71,42.9 M71.2,43.2l9.7-3.9
	c0.2-0.1,0.3-0.3,0.2-0.5c-0.1-0.2-0.3-0.3-0.5-0.2h0l-9.7,3.9c-0.2,0.1-0.3,0.3-0.2,0.5c0.1,0.2,0.2,0.2,0.3,0.2
	C71.1,43.2,71.1,43.2,71.2,43.2z M20.9,63l9.7-3.9 M21,63.4l9.7-3.9c0.2-0.1,0.3-0.3,0.2-0.5s-0.3-0.3-0.5-0.2h0l-9.7,3.9
	c-0.2,0.1-0.3,0.3-0.2,0.5c0.1,0.2,0.2,0.2,0.3,0.2C20.8,63.4,21,63.4,21,63.4z"/>
<path id="moon_00000082334533040250020280000013261498354096696733_" class="st0" d="M41,51c0-8.3,6.7-15,15-15c3.1,0,6.1,1,8.6,2.7
	c-6.8-6.9-17.8-6.9-24.7-0.2c-6.9,6.8-6.9,17.8-0.2,24.7c6.8,6.9,17.8,6.9,24.7,0.2l0.2-0.2c-6.8,4.8-16.1,3.2-20.9-3.6
	C41.9,57.1,41,54.1,41,51L41,51z"/>
</svg>
