<?xml version="1.0" encoding="utf-8"?>
<!-- Generator: Adobe Illustrator 26.1.0, SVG Export Plug-In . SVG Version: 6.00 Build 0)  -->
<svg version="1.1" id="Camada_1" xmlns="http://www.w3.org/2000/svg" xmlns:xlink="http://www.w3.org/1999/xlink" x="0px" y="0px"
	 viewBox="0 0 48.8 61.7" style="enable-background:new 0 0 48.8 61.7;" xml:space="preserve">
<style type="text/css">
	.st0{fill:#D19954;}
	.st1{fill:#FFFFFF;}
	.st2{fill:#666666;}
	.st3{fill:#E4E2DC;}
</style>
<path id="no_sound" class="st0" d="M25.9,25l-7-7l7-7.1V25z M45.7,47.4L9.8,11.5l-3.5,3.5l7.3,7.3H8.4v15.5h5.9l11.5,11.4V34.5
	l3.7,3.7v0.2c0,0,0.1,0,0.1-0.1l3.6,3.6c-0.4,0.4-0.8,0.7-1.2,1.1c0,0-0.1,0.1-0.1,0.1c-0.4,0.4-0.6,0.9-0.6,1.4
	c0,1.1,0.9,1.9,1.9,1.9c0.5,0,0.9-0.2,1.2-0.5c0,0,0,0,0,0c0.5-0.4,1-0.8,1.4-1.3l6.2,6.2L45.7,47.4z M32.1,17
	c3.8,3.1,6.2,7.7,6.2,13c0,2.2-0.4,4.2-1.2,6.1l3,3c1.4-2.7,2.1-5.8,2.1-9.1c0-6.4-2.9-12.1-7.5-15.9c0,0-0.1,0-0.1-0.1
	c-0.3-0.3-0.8-0.5-1.3-0.5c-1.1,0-1.9,0.9-1.9,1.9C31.4,16.1,31.6,16.6,32.1,17C32,17,32.1,17,32.1,17z M34.1,30
	c0-3.5-1.8-6.6-4.5-8.3v6.4l4.3,4.3C34,31.6,34.1,30.8,34.1,30z"/>
</svg>
