<?xml version="1.0" encoding="UTF-8"?><svg id="a" xmlns="http://www.w3.org/2000/svg" viewBox="0 0 100 100"><defs><style>.c{fill:#d19954;}</style></defs><path id="b" class="c" d="M71.57,36.86h0V14.86l-28.99,6.74v.05h-.12v16.87l-.04,5.11h.04v25.02l-.47,.03c-7.95,.49-12.97,2.57-14.91,6.18-2.05,3.82-1.32,7.01,.51,9.09,1.83,2.08,6.34,1.66,9.08,.55,4.91-2,6.96-5.06,7.64-8.33,.16-.75,.24-4.01,.28-8.59l-.03-24.44,19.71-4.58,4.44-1.11v.08l.76-.18v25.2l-.47,.03c-7.95,.49-12.97,2.57-14.91,6.18-2.05,3.82-1.32,7.01,.51,9.09,1.83,2.08,6.34,1.66,9.08,.55,4.91-2,6.96-5.06,7.64-8.33,.16-.75,.24-4.01,.28-8.59l-.03-24.61Zm-3.54-6.66l-22.25,5.39v-5.39l22.25-5.23v5.23Z"/></svg>