<?xml version="1.0" encoding="UTF-8"?><svg id="a" xmlns="http://www.w3.org/2000/svg" viewBox="0 0 100 100"><defs><style>.c{fill:#d19954;}</style></defs><path id="b" class="c" d="M67.18,38.24c-1.46-2.47-5.18-7.34-9.49-11-4.32-3.67-3.73-11.58-4.3-11.97s-1.89-.4-1.89-.4v52.02l-.52,.03c-8.8,.54-14.35,2.84-16.5,6.84-2.27,4.23-1.47,7.76,.56,10.06,2.03,2.3,7.01,1.84,10.05,.6,5.43-2.22,7.71-5.59,8.46-9.22,.46-2.22,.36-24.22,.21-41.02,15.56,2.04,14.24,17.7,12.99,24.14-1.26,6.46-3.45,10.14-3.45,10.14l.41,.04c3.45-5.61,5.08-8.88,6.06-15.36,.99-6.47-1.13-12.42-2.59-14.89Z"/></svg>