<?xml version="1.0" encoding="utf-8"?>
<!-- Generator: Adobe Illustrator 26.1.0, SVG Export Plug-In . SVG Version: 6.00 Build 0)  -->
<svg version="1.1" id="Camada_1" xmlns="http://www.w3.org/2000/svg" xmlns:xlink="http://www.w3.org/1999/xlink" x="0px" y="0px"
	 viewBox="0 0 259.8 61.7" style="enable-background:new 0 0 259.8 61.7;" xml:space="preserve">
<style type="text/css">
	.st0{fill:#E4E2DC;}
	.st1{fill:#FFFFFF;}
	.st2{fill:#D19954;}
</style>
<g id="panel">
	<path id="background" class="st0" d="M256.6,30.4v0.9c0,16-13.1,29-29,29H31.3c-16,0-29-13.1-29-29c0,0-3.7-30.4,29-29.9h196.3
		C243.6,1.3,256.6,14.4,256.6,30.4z"/>
	<g id="buttons">
		<g id="play">
			<circle class="st1" cx="162.1" cy="30.8" r="24.4"/>
			<polygon class="st2" points="154.5,17.8 176.4,32.3 154.5,46.6 			"/>
		</g>
		<g id="pause">
			<g>
				<circle class="st1" cx="223" cy="30.7" r="24.4"/>
			</g>
			<g>
				<rect x="225.8" y="17.9" class="st2" width="6.3" height="27.2"/>
				<rect x="214.6" y="17.9" class="st2" width="6.3" height="27.2"/>
			</g>
		</g>
		<g id="reset">
			<path class="st2" d="M126.5,31.3L126.5,31.3c0,12.5-10.2,22.7-22.7,22.7H33.6c-12.5,0-22.7-10.2-22.7-22.7l0,0
				c0-12.5,10.2-22.7,22.7-22.7h70.1C116.3,8.5,126.5,18.8,126.5,31.3z"/>
			<g>
				<path class="st1" d="M34,39.1V22.4h7.1c0.7,0,1.4,0.1,2,0.4s1.1,0.7,1.6,1.2c0.4,0.5,0.8,1.1,1,1.7s0.4,1.3,0.4,1.9
					c0,0.8-0.2,1.6-0.5,2.3c-0.3,0.7-0.7,1.3-1.3,1.8c-0.6,0.5-1.2,0.8-2,1l4.1,6.5h-1.9L40.6,33h-5v6.2L34,39.1L34,39.1z
					 M35.6,31.5h5.5c0.7,0,1.2-0.2,1.7-0.5c0.5-0.4,0.9-0.8,1.1-1.4c0.3-0.6,0.4-1.2,0.4-1.9c0-0.7-0.2-1.3-0.5-1.9s-0.7-1-1.2-1.4
					s-1.1-0.5-1.7-0.5h-5.3V31.5z"/>
				<path class="st1" d="M60.7,37.6v1.5H49.4V22.4h11v1.5H51v6h8.2v1.4H51v6.4h9.7V37.6z"/>
				<path class="st1" d="M73.5,25.5c-0.2-0.3-0.5-0.5-0.8-0.7s-0.7-0.4-1.1-0.6s-0.8-0.3-1.3-0.4c-0.4-0.1-0.9-0.1-1.4-0.1
					c-1.5,0-2.5,0.3-3.2,0.8c-0.7,0.6-1,1.3-1,2.3c0,0.7,0.2,1.2,0.5,1.6s0.8,0.7,1.5,0.9c0.7,0.2,1.6,0.5,2.6,0.7
					c1.2,0.3,2.2,0.5,3.1,0.9c0.9,0.3,1.5,0.8,2,1.4c0.5,0.6,0.7,1.4,0.7,2.4c0,0.8-0.1,1.4-0.4,2s-0.7,1-1.3,1.4
					c-0.5,0.4-1.2,0.7-1.9,0.8c-0.7,0.2-1.6,0.3-2.4,0.3c-0.9,0-1.7-0.1-2.5-0.3s-1.5-0.4-2.3-0.8c-0.7-0.4-1.4-0.8-2-1.4l0.8-1.3
					c0.3,0.3,0.7,0.6,1.1,0.9c0.4,0.3,0.9,0.5,1.4,0.7s1.1,0.4,1.7,0.5s1.2,0.2,1.8,0.2c1.3,0,2.4-0.2,3.1-0.7s1.1-1.2,1.1-2.2
					c0-0.7-0.2-1.2-0.6-1.7c-0.4-0.4-0.9-0.8-1.7-1c-0.8-0.3-1.7-0.5-2.8-0.8c-1.2-0.3-2.1-0.6-2.9-0.9s-1.4-0.8-1.8-1.3
					C63.2,28.7,63,27.9,63,27c0-1,0.3-1.9,0.8-2.6c0.5-0.7,1.2-1.3,2.1-1.6c0.9-0.4,1.9-0.6,3.1-0.6c0.7,0,1.4,0.1,2.1,0.2
					c0.6,0.1,1.2,0.4,1.8,0.6c0.5,0.3,1.1,0.6,1.5,1.1L73.5,25.5z"/>
				<path class="st1" d="M89.3,37.6v1.5H78V22.4h11v1.5h-9.4v6h8.2v1.4h-8.2v6.4h9.7V37.6z"/>
				<path class="st1" d="M104.3,23.8h-6v15.3h-1.7V23.8h-6v-1.5h13.6L104.3,23.8L104.3,23.8z"/>
			</g>
		</g>
	</g>
</g>
</svg>
