<?xml version="1.0" encoding="utf-8"?>
<!-- Generator: Adobe Illustrator 26.1.0, SVG Export Plug-In . SVG Version: 6.00 Build 0)  -->
<svg version="1.1" id="saturn" xmlns="http://www.w3.org/2000/svg" xmlns:xlink="http://www.w3.org/1999/xlink" x="0px" y="0px"
	 viewBox="0 0 100 100" style="enable-background:new 0 0 100 100;" xml:space="preserve">
<style type="text/css">
	.st0{fill:#FFFFFF;}
	.st1{fill:#D19954;}
</style>
<g id="planet">
	<ellipse id="back" class="st0" cx="50.9" cy="53.8" rx="22.3" ry="22.2"/>
	<path id="line-planet" class="st1" d="M51,76.3c-9.7,0-18.4-6.3-21.4-15.5c0-0.2,0-0.3,0.2-0.4s0.4,0,0.4,0.2
		c2.4,7.3,8.4,12.9,15.9,14.6c7.6,1.7,15.6-0.7,20.9-6.3c0.1-0.1,0.5,0.3,0.4,0.4C63.2,73.7,57.2,76.3,51,76.3L51,76.3z M28.9,53.3
		L28.9,53.3c-0.1,0-0.3-0.2-0.3-0.3c0.1-1.4,0.3-2.9,0.6-4.2c2.8-12.1,15-19.6,27.1-16.8c4.2,1,8,3.1,10.9,6.1
		c0.1,0.1,0.1,0.3,0,0.4s-0.3,0.1-0.4,0c-8.5-8.6-22.3-8.8-31-0.3c-3,2.9-5,6.6-6,10.7c-0.3,1.3-0.5,2.7-0.5,4.1
		C29.1,53.2,29,53.3,28.9,53.3L28.9,53.3z M71.1,62.5c0.5-1.2,0.9-2.5,1.2-3.8c1.7-7.3-0.4-15-5.7-20.3c-0.1-0.1-0.1-0.3,0-0.4
		s0.3-0.1,0.4,0c5.4,5.5,7.6,13.4,5.8,20.9c-0.3,1.3-0.7,2.6-1.3,3.9C71.6,62.9,71.1,62.7,71.1,62.5L71.1,62.5z M58.2,37.8
		c-1.8,0-3.6-0.2-5.3-0.6c-3.3-0.8-6.3-2.2-9-4.3c-0.1-0.1-0.2-0.3,0-0.4c0.1-0.1,0.3-0.2,0.4,0l0,0c2.6,2,5.6,3.4,8.7,4.2
		c3.8,0.9,7.8,0.8,11.6-0.4c0.2,0,0.3,0,0.4,0.2l0,0c0,0.2,0,0.3-0.2,0.4l0,0C62.7,37.4,60.5,37.8,58.2,37.8L58.2,37.8z M50.7,46.1
		c-1.8,0-3.6-0.2-5.3-0.6c-3.6-0.8-7.7-3.1-10.9-6.1c-0.1-0.1-0.1-0.3,0-0.4c0.1-0.1,0.3-0.1,0.4,0c3.1,2.9,7.1,5.1,10.6,5.9
		c7.7,1.8,15.8-0.5,21.3-6.2c0.1-0.1,0.3-0.1,0.4,0s0.1,0.3,0,0.4l0,0C62.9,43.6,56.9,46.1,50.7,46.1L50.7,46.1z M52.9,53
		c-2.7,0-5.5-0.3-8.1-0.9c-5.2-1.2-10.1-3.6-14.2-7c-0.1-0.1-0.1-0.3,0-0.4c0.1-0.1,0.3-0.2,0.4,0c11.7,9.5,28.2,10.3,40.8,2.2
		c0.2-0.1,0.3,0,0.4,0.1s0,0.3-0.1,0.4l0,0C66.4,51.1,59.7,53,52.9,53L52.9,53z M60.4,74.1c-0.1,0-0.1,0-0.2-0.1
		c-6.8-5.1-15.8-6.3-23.8-3.2c-0.2,0.1-0.3,0-0.4-0.2c-0.1-0.2,0-0.3,0.2-0.4c8.2-3.2,17.3-1.9,24.3,3.3c0.1,0.1,0.2,0.3,0,0.4
		C60.6,74.1,60.5,74.1,60.4,74.1z"/>
	<path id="ring" class="st1" d="M19.5,40.9C11,41,5.6,42.5,5.1,45c-0.6,2.5,3.7,6.3,11.7,10.1c8.3,3.9,19.6,7.6,31.9,10.4
		C61,68.3,72.9,69.8,82,69.8s14.3-1.5,14.9-4.1c0.8-3.4-6.9-8.7-19.8-13.5c4.9,2.6,9.2,5.4,8.7,7.7c-1.1,4.7-19,3.6-35.8-0.1
		S16.6,49.2,17.6,44.5c0.5-2.2,5.6-2.9,11.1-3.2c-0.6,0-1.3-0.1-1.9-0.2C24.2,41,21.8,40.9,19.5,40.9L19.5,40.9z"/>
	<path id="ring_x5F_line" class="st1" d="M82.4,70.4c-8.8,0.1-20.8-1.3-33.9-4.3C22.4,60.2,3,50.9,4.4,44.9c0.8-3.7,9-5.3,22.5-4.3
		c1.5,0.1,3,0.2,4.6,0.4l0,0C32,41,32.3,41,32.5,41c0.1,0,0.4,0.1,0.4,0.3s0,0.3-1.8,0.4c-3.1,0.1-12.5,0.4-13,2.8
		C17.3,47.9,30,54.5,50,59.1s34.3,3.9,35.1,0.6c0.5-2.4-7.7-6.7-10.5-8.1c-0.4-0.2-0.7-0.4-1-0.5c-0.3-0.2-0.6-0.3-0.5-0.6
		s0.3-0.3,1.6,0.2c15.1,5.4,23.6,11,22.7,15.1C96.7,68.8,91.1,70.3,82.4,70.4L82.4,70.4z M19.4,40.9C10.9,41,5.6,42.5,5,45
		c-0.6,2.5,3.7,6.3,11.7,10.1c8.3,3.9,19.6,7.6,31.9,10.4c12.3,2.8,24.2,4.3,33.3,4.3s14.3-1.5,14.9-4.1c0.8-3.4-6.9-8.7-19.8-13.5
		c4.9,2.6,9.2,5.4,8.7,7.7c-1.1,4.7-19,3.6-35.8-0.1S16.5,49.2,17.5,44.5c0.5-2.2,5.6-2.9,11.1-3.2c-0.6,0-1.3-0.1-1.9-0.2
		C24.2,41,21.7,40.9,19.4,40.9L19.4,40.9z"/>
</g>
</svg>
