<?xml version="1.0" encoding="utf-8"?>
<!-- Generator: Adobe Illustrator 26.1.0, SVG Export Plug-In . SVG Version: 6.00 Build 0)  -->
<svg version="1.1" id="Camada_1" xmlns="http://www.w3.org/2000/svg" xmlns:xlink="http://www.w3.org/1999/xlink" x="0px" y="0px"
	 viewBox="0 0 359 504.2" style="enable-background:new 0 0 359 504.2;" xml:space="preserve">
<style type="text/css">
	.st0{fill:url(#SVGID_1_);}
	.st1{clip-path:url(#SVGID_00000086671582881140978150000001580729771038626972_);}
	.st2{fill:#2B5868;}
	.st3{fill:#25B8B2;}
	.st4{fill:#5B7982;}
	.st5{fill:#00AAB2;}
	.st6{fill:#007986;}
</style>
<radialGradient id="SVGID_1_" cx="167.6835" cy="276.1687" r="382.1696" gradientTransform="matrix(0.4247 0 0 0.7485 108.2895 45.4007)" gradientUnits="userSpaceOnUse">
	<stop  offset="4.278739e-03" style="stop-color:#182651"/>
	<stop  offset="0.7225" style="stop-color:#100B2C"/>
	<stop  offset="1" style="stop-color:#0C001D"/>
</radialGradient>
<rect class="st0" width="359" height="504.2"/>
<g>
	<defs>
		<rect id="SVGID_00000078742646482483499660000004583435447520788660_" x="1" y="329.2" width="357" height="175"/>
	</defs>
	<clipPath id="SVGID_00000026861466115868066400000001245271721671675314_">
		<use xlink:href="#SVGID_00000078742646482483499660000004583435447520788660_"  style="overflow:visible;"/>
	</clipPath>
	<g style="clip-path:url(#SVGID_00000026861466115868066400000001245271721671675314_);">
		<path class="st2" d="M-22.7,501.5h65.1c2.9-0.6,5.4-1.3,7.4-2.3c20.1-9.7-33.1-31.8-33.1-31.8s-12.9-4.5-22.2-3.7
			s-60.5-5.2-60.5-5.2s-10.6-2.1-24.5-1.4c-13.8,0.7-46.2,6.3-71.7,7.9c-15.6,1-40.1-6-40.1-6l-53.4-9.7v52.2h199.8
			C-46.3,500.8-34.7,501-22.7,501.5z"/>
		<path class="st3" d="M1.3,461.1c4.3-2.9,35.7-9.6,41-9.9c5.3-0.3,9.3,3.1,13,1.4s5.7-4.1,11.7-5.8c6.1-1.7,11.7-8.5,19-9.5
			c7.3-1,11.7,2.4,11.7,2.4l4.5,3.8c0.7,0.6,1.7,0.9,2.7,0.8c1.8-0.1,4.7-0.2,6.2,0.1c2.2,0.5,7.1,5.6,10.9,6.8
			c3.8,1.2,9.3-0.3,15.4,3.1s9.3,10.6,13.4,12.6c4.1,2,8.1-2.4,13.8-3.1c5.7-0.7,4.5,3.4,8.1,6.1c3.6,2.7,11.7,3.1,15,4.4
			c2.5,1,15.9,11.9,21.9,16.8c0.6,0.5,2.7,3.2,2,3c-4.5-1.5-21.7-6.6-31-7.3c-23.6-1.7-60.9-0.2-72.1-1c-11.1-0.8-31-4.3-48.4-9.7
			S-3,464,1.3,461.1z"/>
		<g>
			<g>
				<g>
					<path class="st4" d="M464.9,473.2c0.1,0.2,0.1,0.4,0.1,0.4C465.3,473.2,465.2,473.1,464.9,473.2z"/>
				</g>
				<g>
					<path class="st4" d="M493.1,480.5c0.6-0.7-8.8-4.9-28.9-6.7c-3.6-0.3-18.3,9.1-20,8.1c-1.6-1-35.8-10.7-48.1-10.8
						c-36-0.1-37.5,7.5-54.8,2.1c-18.2-5.8-28.6-16-40.5-16.5c-21.1-0.9-40.5,15-45.8,15s-6.9-2.4-13-4.8
						c-6.1-2.4-14.4,0.8-14.4,0.8s-13.6,6-15.2,7c-1.6,1-8.1,1-11.7,0.7c-3.6-0.3-6.5-5.1-10.1-5.5c-3-0.3-4.9,2.6-5.2,3.7
						c2,0.5,15.7,9.6,26.4,20.3c3.2,3.2,37.2,9.5,46.1,9.8c8.9,0.3,21.8,0.9,21.8,0.9l13.4,0.1l64.9-0.6l13.4-0.1
						c0,0,12.9-0.6,21.8-0.9c8.9-0.3,81.3-0.2,83.3-0.7C478.6,502.4,476.8,499.3,493.1,480.5z"/>
				</g>
			</g>
		</g>
		<path class="st5" d="M125.9,490.8c-10.7-0.2-22.3-1.3-39.9-1.7c-17.6-0.5-51.7-4.4-62.6-4.9c-7.4-0.4-25.6-15.6-33-13.9
			c0.1-0.1-12.9-3.1-23.7,5.5c-10.9,8.6-14.7,1-23.7,1.2c-10.4,0.2-30.5,1.1-39.6-1.2c-9.1-2.2-28.4-4-39.2-2.6
			c-10.9,1.3-29.1,5.4-46.6,7.1c-17.5,1.7-31.9,10.6-42.5,11.5c-7.2,0.6-21.8-2.1-30.6-4v14.4h392.2
			C142.1,495.5,133.5,490.9,125.9,490.8z"/>
		<path class="st6" d="M567.1,483.4c-3.5-0.8-11.5,0.4-15.8-1.6c-4.3-2-4.1-6.2-9.5-4.5c-5.4,1.7-8.2,6.7-12.7,5.5
			c-4.5-1.3-9.5-7.7-16.2-9.9c-6.8-2.2-11.8,0.2-15.8-0.2s-10.1-4.6-12.4-4.7c-1.5-0.1-4.3,0.6-6,1c-1,0.2-2,0.1-2.8-0.3l-5.4-2.9
			c0,0-5.2-2.5-12.1-0.2c-6.9,2.3-10.7,10-16.2,12.7c-5.5,2.8-6.9,5.4-10,7.8c-3.1,2.3-8-0.3-13,1c-4.4,1.1-45.5,12.6-53.4,17.4
			l223.9-2v-7.9C581.8,490.2,569.5,483.9,567.1,483.4z"/>
		<path class="st2" d="M16.8,492c2.3,3,7.2,6.4,14,10.1l225.4,1.3c-17.3-3.3-69-19.3-87.6-23.6c-20.8-4.8-49.9,7.8-62.9,4.9
			c-13-2.9-38.5-10.9-38.5-10.9s-40.4-11.7-56.6-14.3s-47.8,2.6-47.8,2.6S-5.2,463.1,16.8,492z"/>
	</g>
</g>
</svg>
