<?xml version="1.0" encoding="utf-8"?>
<!-- Generator: Adobe Illustrator 26.1.0, SVG Export Plug-In . SVG Version: 6.00 Build 0)  -->
<svg version="1.1" id="a" xmlns="http://www.w3.org/2000/svg" xmlns:xlink="http://www.w3.org/1999/xlink" x="0px" y="0px"
	 viewBox="0 0 100 100" style="enable-background:new 0 0 100 100;" xml:space="preserve">
<style type="text/css">
	.st0{fill:#FFFFFF;}
	.st1{fill:#D19954;}
</style>
<path id="background" class="st0" d="M53.9,9.9c-2.8,0-4.9,0.9-7.3,3.2c-4.9,4.5-3.8,13-2.6,16.8c-0.1,0-0.2,0.1-0.3,0.1
	c-0.6,0-1.4-0.7-1.4-1.3c0-0.1,0-0.3,0.1-0.5l0.1-0.8c0-3.1-2.4-5-5.4-5.4c-0.2,0-0.3,0-0.4,0c-0.4,0-0.8,0.1-1.2,0.2
	c2.4,0.7,3.8,3.2,3.1,5.6c-0.1,0.3-0.2,0.5-0.3,0.8c-0.5,0.6-0.8,1.3-0.8,2.1c-2.3-3.6-6.9-8.5-12.5-8.5h-0.6c-3.8,0.2-6,1.3-8.2,4
	l-0.5,0.8c1.3-0.9,2.8-1.4,4.4-1.4h0.2c4.3,0.1,7.7,3.7,7.6,8l0,0l0.1,1.1c0,1.6,1,2.9,2.1,3.9l0.3,0.3h-0.9c-0.8,0-1.6,0.3-2.3,0.8
	c-0.6,0.3-1.3,0.5-2,0.5H25c-2,0-3.7-1.4-4.2-3.3c-0.2,0.5-0.3,1-0.2,1.6c0.3,3.1,2.2,5.4,5.2,5.5l0,0c0.3,0,0.5,0,0.8-0.1
	c0.1,0,0.3-0.1,0.5-0.1h0c0.7,0,1.5,1.1,1.2,1.6c-2.4-0.8-4.8-1.1-7.2-1.2c-3.4,0-7.1,0.8-9.6,3.4c-2.6,2.8-3.5,5.1-3.3,8.6l0.2,0.9
	c0.9-4.2,5-6.9,9.2-6c1.6,0.3,3.1,1.2,4.2,2.4l0.8,0.8c1.1,1.2,2.6,1.4,4.2,1.4l0,0l0.4,0l-0.4,0.3l0,0l0,0l-0.3,0.2
	c-0.6,0.6-1,1.4-1.2,2.2c-0.9,2.3-3.5,3.5-5.8,2.6c-0.3-0.1-0.5-0.2-0.8-0.4c0.2,0.5,0.5,0.9,0.9,1.3c1.2,1,2.7,1.7,4.2,1.7
	c1.2,0,2.5-0.5,3.4-1.3c0.2-0.2,0.4-0.4,0.5-0.6c0.1-0.2,0.1-0.3,0.3-0.4c0.3-0.2,0.7-0.3,1.1-0.3c0.4,0,0.8,0.2,1.1,0.4
	c-2.9,2.3-8.6,10.1-7.8,16.9c0.5,3.8,1.6,6,4.5,8l0.9,0.4c-2.6-3.4-2-8.3,1.3-10.9c1.3-1,2.9-1.6,4.5-1.6l1.1-0.2
	c1.6,0,2.8-1.1,3.8-2.3l0.1-0.2c0-0.1,0.1-0.1,0.1-0.2v0.5l0,0v0l0,0v0.3c0.1,0.9,0.4,1.7,0.9,2.4c1.2,2.2,0.5,5-1.7,6.2
	c-0.2,0.1-0.4,0.2-0.6,0.3l0,0c0,0-0.1,0-0.1,0h0l0,0c0.3,0.1,0.7,0.2,1.1,0.2c0.2,0,0.3,0,0.5,0c3.1-0.5,5.4-2.5,5.2-5.6
	c0-0.3-0.1-0.5-0.2-0.8c-0.1-0.2-0.1-0.3-0.1-0.5c0-0.6,0.8-1.3,1.4-1.3c0.1,0,0.2,0,0.2,0c-1,3.8-1.8,12.5,3.3,16.8
	c2.4,2,4.4,2.9,7,2.9c0.6,0,1.2,0,1.8-0.1l0.9-0.3c-4.3-0.6-7.2-4.7-6.6-8.9c0.3-1.6,1-3.2,2.2-4.4l0.7-0.9c1.2-1.2,1.3-2.8,1.2-4.3
	v-0.4l0.3,0.3l0,0l0,0l0.2,0.2c0.6,0.6,1.5,1,2.3,1.1c0.7,0.2,1.3,0.6,1.9,1.1c1.4,1.4,1.8,3.6,0.8,5.4c0.5-0.2,0.9-0.6,1.3-1
	c1.9-2.5,2.2-5.5,0-7.7c-0.2-0.2-0.4-0.3-0.7-0.5c-0.2,0-0.3-0.2-0.4-0.3c-0.5-1-0.4-1.6,0-2.1l0-0.2c0.3,0.3,0.6,0.7,0.9,1l0.2,0.1
	c1,1.1,2.2,2.1,3.8,2.1h0.1l1.1,0.1h0.3c4.3,0,7.8,3.5,7.8,7.8c0,1.6-0.5,3.1-1.3,4.4l0.8-0.5c2.7-2.3,3.8-4.5,3.9-8.3
	c0.3-6.9-5.9-14.2-8.9-16.4c0.3-0.3,0.8-0.5,1.2-0.5c0.3,0,0.7,0.1,1,0.2c0.2,0,0.2,0.2,0.3,0.3c0.2,0.2,0.4,0.4,0.6,0.6
	c0.9,0.7,2,1.1,3.1,1.1c1.6,0,3.1-0.8,4.5-2c0.4-0.4,0.7-0.8,0.8-1.3c-2.1,1.5-4.8,1-6.3-1.1c-0.2-0.2-0.3-0.5-0.4-0.8
	c-0.2-0.8-0.7-1.6-1.3-2.1l-0.3-0.2l0,0l0,0l-0.4-0.3l0.4,0c1.5-0.1,3.1-0.4,4.1-1.7l0.8-0.8c2.7-3.4,7.5-4,10.9-1.3
	c1.3,1,2.2,2.4,2.7,4l0.2-0.9c0-3.5-1-5.7-3.8-8.3c-2.3-2.2-5.4-2.9-8.5-2.9c-2.9,0-5.8,0.6-8.5,1.6c-0.3-0.5,0.4-1.7,1.1-1.8h0.2
	c0.1,0,0.2,0,0.3,0c0,0,0.4,0,0.7,0h0.1c3.1-0.3,4.8-2.8,4.9-5.8c0-0.5-0.1-1-0.3-1.5c-0.4,1.9-2,3.4-4,3.6h-0.4
	c-0.6,0-1.2-0.1-1.7-0.3c-0.6-0.4-1.4-0.6-2.2-0.6h-0.3l-0.3,0h0l-0.5,0l0.3-0.3c1-1.1,2-2.4,1.8-4v-1.1c-0.4-4.3,2.8-8,7-8.5l0,0
	c0.2,0,0.5,0,0.7,0c1.4,0,2.8,0.4,4,1.1l-0.6-0.8c-2.4-2.6-4.6-3.5-8.3-3.5h-0.2c-6.6,0-11.4,7-13.1,10.6c-1.1-0.5-1.1-1.3-0.5-1.9
	c0,0,0.6-0.5,0.7-0.6c2.1-2.3,1.7-5.2-0.3-7.6c-0.3-0.4-0.8-0.8-1.3-0.9c1.3,2.2,0.5,4.9-1.6,6.1c-0.3,0.1-0.5,0.3-0.8,0.4
	c0,0-0.5,0.2-1.4,1.2l-0.2,0.2l0,0l0,0L54.5,29v-0.4c0-1.5-0.1-3.1-1.3-4.2l-0.7-0.8c-3.2-2.9-3.3-7.8-0.5-11
	c1.1-1.2,2.6-2.1,4.2-2.3L55.3,10L53.9,9.9L53.9,9.9z"/>
<path id="lines" class="st1" d="M53,10.7c-0.6,0.4-1.1,0.8-1.6,1.3c-3.2,3.4-3,8.8,0.5,12l0.7,0.8l0,0.1c1,0.9,1.1,2.3,1.1,3.6V29
	c0,0.3,0.2,0.6,0.5,0.7c0.1,0,0.2,0,0.3,0c0.2,0,0.4-0.1,0.6-0.2l0.3-0.4l0,0l0,0l0-0.1l0.2-0.2c0.3-0.4,0.7-0.7,1.1-1
	c2-0.8,3.4-2.7,3.5-4.9c1,1.7,1.3,3.9-0.4,5.7c-0.1,0.1-0.4,0.4-0.6,0.6l0,0c-0.5,0.5-0.7,1.1-0.6,1.7c0,0.1,0.1,0.3,0.2,0.4
	c-4.4-1.9-9.3-2.3-14-1.2c0.1-0.1,0.1-0.3,0-0.5c-1.2-3.7-2.2-11.9,2.4-16C49.2,11.7,50.9,10.9,53,10.7 M73.4,21.8
	c2.7,0,4.5,0.5,6.2,1.8c-0.4-0.1-0.9-0.1-1.3-0.1c-0.3,0-0.5,0-0.8,0c-4.7,0.5-8.1,4.5-7.7,9.2v1.1c0.1,1.4-0.7,2.5-1.6,3.5l0,0
	l-0.3,0.3c-0.3,0.3-0.2,0.8,0.1,1c0.2,0.1,0.3,0.2,0.5,0.2h0.1l0.5,0h0.6c0.6,0,1.2,0.2,1.7,0.5c0,0,0.1,0,0.2,0.1
	c0.6,0.3,1.3,0.4,2,0.4c0.2,0,0.3,0,0.5,0c1.3-0.1,2.5-0.7,3.4-1.6c-0.4,1.9-1.6,3.7-4.1,4h0c-0.2,0-0.4,0-0.6,0c-0.2,0-0.3,0-0.4,0
	H72c-0.7,0.1-1.3,0.6-1.6,1.3v0c-1.9-4.7-5.4-8.5-9.8-11c0.1-0.1,0.2-0.2,0.3-0.3C62.5,28.5,67.3,21.8,73.4,21.8L73.4,21.8 M38.2,23
	c1.9,0.6,3.6,1.9,3.6,4.4c0,0.1,0,0.4-0.1,0.6c-0.1,0.2-0.1,0.5-0.1,0.6c0,0.9,0.8,1.6,1.6,1.9c-6.7,2.2-12,7.3-14.2,14
	c0-0.2-0.1-0.3-0.2-0.4c-0.3-0.6-1-1.1-1.7-1.2H27c-0.2,0-0.4,0-0.6,0.1c-0.3,0-0.6,0.1-0.6,0.1c-2.5-0.1-3.8-1.8-4.3-3.7
	c0.9,0.9,2.2,1.4,3.5,1.4h0.2c0.8,0,1.6-0.2,2.3-0.5c0,0,0.1,0,0.1-0.1c0.6-0.4,1.2-0.6,1.9-0.6h0.9c0.4,0,0.8-0.3,0.8-0.8
	c0-0.2-0.1-0.4-0.2-0.5l-0.3-0.2l0,0c-1-0.9-1.9-2-1.8-3.3v-0.1l-0.1-1c0.1-4.7-3.6-8.6-8.3-8.7h-0.2c-0.6,0-1.2,0.1-1.8,0.2
	c1.6-1.4,3.4-2,6.2-2.2h0.5c6,0,10.6,6.2,11.8,8.1c0.2,0.2,0.4,0.3,0.6,0.3c0.1,0,0.1,0,0.2,0c0.3-0.1,0.5-0.3,0.6-0.7
	c0.1-0.6,0.3-1.2,0.7-1.7c0,0,0.1-0.1,0.1-0.1C40,27,39.7,24.6,38.2,23 M79.5,43.5c3.4,0,6,0.9,7.9,2.7c2,1.9,3.1,3.5,3.4,5.6
	c-0.4-0.6-0.9-1-1.4-1.5c-3.7-2.9-9-2.2-11.9,1.4l-0.7,0.8l0,0.1c-0.9,1.1-2.2,1.3-3.5,1.4h0l-0.4,0c-0.4,0-0.7,0.4-0.7,0.8
	c0,0.2,0.1,0.4,0.3,0.5l0.4,0.3l0,0l0.1,0.1l0.2,0.1c0.5,0.5,0.9,1,1.1,1.7c0,0,0,0.1,0,0.2c0.3,0.8,0.9,1.5,1.6,2
	c0.9,0.7,2.1,1.1,3.2,1.1h0.4c-0.9,0.7-1.9,1-3.1,1.1c-1,0-1.9-0.3-2.7-1c-0.1,0-0.3-0.3-0.4-0.5l0,0c-0.2-0.3-0.4-0.5-0.6-0.6
	c-0.4-0.2-0.8-0.2-1.2-0.2c-0.3,0-0.6,0-0.8,0.2c1.8-4.7,2.1-9.8,0.6-14.6c0.1,0,0.2,0,0.2,0C73.9,44.1,76.7,43.6,79.5,43.5
	 M21,45.1c2.4,0,4.8,0.4,7,1.1c0.1,0,0.1,0,0.2,0s0.2,0,0.3,0c-1.2,4.8-0.8,10,1.3,14.6c-0.2-0.1-0.5-0.1-0.7-0.1
	c-0.5,0-0.9,0.1-1.4,0.3c-0.3,0.2-0.5,0.3-0.6,0.6l0,0c-0.1,0.2-0.3,0.4-0.4,0.5c-0.8,0.8-1.8,1.2-2.9,1.2c-1,0-2-0.3-2.8-0.9h0
	c1.3,0,2.5-0.5,3.5-1.3c0.6-0.6,1.1-1.3,1.4-2.1c0,0,0-0.1,0-0.2c0.1-0.7,0.5-1.3,0.9-1.8l0.1-0.1l0.1-0.1l0,0l0.4-0.3
	c0.2-0.2,0.3-0.5,0.2-0.8c-0.1-0.3-0.4-0.5-0.7-0.5l-0.4,0h-0.1c-1.3,0-2.7-0.2-3.6-1.2l-0.1,0l-0.8-0.7c-3.1-3.5-8.5-3.8-12-0.7
	c-0.5,0.5-1,1-1.4,1.5c0.2-2.1,1.2-3.8,3.1-5.8C14.5,45.7,18.3,45.1,21,45.1 M69.7,61.5c1.4,1,3.7,3.3,5.5,6.2
	c1.5,2.3,3.3,5.9,3.1,9.5c-0.2,2.8-0.7,4.6-2.1,6.2c1-4.6-2-9.1-6.6-10.1c-0.6-0.1-1.2-0.2-1.8-0.2h-0.2l-1-0.1h-0.2
	c-1.3,0-2.3-0.9-3.2-1.8l0,0L63,71.1c-0.3-0.4-0.6-0.8-0.9-1.1l0,0C65.4,67.9,68,65,69.7,61.5 M30.7,62.4c2.9,5.2,7.8,9.1,13.6,10.6
	c-0.3,0.2-0.5,0.3-0.7,0.5c-0.4,0.4-0.6,0.9-0.6,1.4c0,0.2,0,0.4,0.1,0.7c0,0.2,0.1,0.4,0.1,0.6c0.1,2.5-1.6,4-3.5,4.6
	c1.5-1.7,1.7-4.1,0.6-6c0,0,0-0.1-0.1-0.1c-0.5-0.6-0.7-1.2-0.8-1.9v-0.3l0,0v0l0,0v-0.5c0-0.3-0.2-0.6-0.5-0.7c-0.1,0-0.2,0-0.2,0
	c-0.3,0-0.5,0.1-0.6,0.3l0,0c0,0,0,0,0,0.1l-0.1,0.1l0,0c-0.9,1-1.9,2-3.2,2h-0.1l-1,0.2c-4.7,0.2-8.4,4.1-8.2,8.8
	c0,0.7,0.1,1.4,0.3,2.1c-1.5-1.5-2.2-3.3-2.5-6.1c-0.4-3.6,1.1-7.3,2.5-9.7C27.3,66,29.4,63.5,30.7,62.4 M60.8,70.9
	c-0.2,0.8-0.1,1.6,0.3,2.3c0.2,0.3,0.4,0.4,0.7,0.6l0,0c0.2,0.1,0.3,0.2,0.5,0.4c1.8,1.8,1.5,4,0.6,5.7c-0.1-2.2-1.6-4.1-3.7-4.8
	c0,0-0.1,0-0.2,0c-0.7-0.1-1.3-0.4-1.9-0.9L56.9,74l0,0l0,0l-0.3-0.3c-0.2-0.2-0.5-0.3-0.8-0.2s-0.5,0.4-0.5,0.7v0.4
	c0.1,1.3,0,2.8-1,3.7c0,0,0,0,0,0l-0.7,0.8c-3.3,3.3-3.3,8.8,0,12.1c0.5,0.5,1,0.9,1.7,1.3c-2.1-0.1-3.9-0.9-6.1-2.7
	c-4.8-4-4.1-12.3-3.1-16.1c0-0.1,0-0.3,0-0.4C51.1,74.3,56.3,73.4,60.8,70.9 M53.9,9.9c-2.8,0-4.9,0.9-7.3,3.2
	c-4.9,4.5-3.8,13-2.6,16.8C44,30,43.8,30,43.8,30c-0.6,0-1.4-0.7-1.4-1.3c0-0.1,0-0.3,0.1-0.5l0.1-0.8c0-3.1-2.4-5-5.4-5.4
	c-0.2,0-0.3,0-0.4,0c-0.4,0-0.8,0.1-1.2,0.2c2.4,0.7,3.8,3.2,3.1,5.6c-0.1,0.3-0.2,0.5-0.3,0.8c-0.5,0.6-0.8,1.3-0.8,2.1
	c-2.3-3.6-6.9-8.5-12.5-8.5h-0.6c-3.8,0.2-6,1.3-8.2,4l-0.5,0.8c1.3-0.9,2.8-1.4,4.4-1.4h0.2c4.3,0.1,7.7,3.7,7.6,8l0,0l0.1,1.1
	c0,1.6,1,2.9,2.1,3.9l0.3,0.3h-0.9c-0.8,0-1.6,0.3-2.3,0.8c-0.6,0.3-1.3,0.5-2,0.5H25c-2,0-3.7-1.4-4.2-3.3c-0.2,0.5-0.3,1-0.2,1.6
	c0.3,3.1,2.2,5.4,5.2,5.5l0,0c0.3,0,0.5,0,0.8-0.1c0.1,0,0.3-0.1,0.5-0.1h0c0.7,0,1.5,1.1,1.2,1.6c-2.4-0.8-4.8-1.1-7.2-1.2
	c-3.4,0-7.1,0.8-9.6,3.4c-2.6,2.8-3.5,5.1-3.3,8.6l0.2,0.9c0.9-4.2,5-6.9,9.2-6c1.6,0.3,3.1,1.2,4.2,2.4l0.8,0.8
	c1.1,1.2,2.6,1.4,4.2,1.4l0,0l0.4,0l-0.4,0.3l0,0l0,0l-0.3,0.2c-0.6,0.6-1,1.4-1.2,2.2c-0.9,2.3-3.5,3.5-5.8,2.6
	c-0.3-0.1-0.5-0.2-0.8-0.4c0.2,0.5,0.5,0.9,0.9,1.3c1.2,1,2.7,1.7,4.2,1.7c1.2,0,2.5-0.5,3.4-1.3c0.2-0.2,0.4-0.4,0.5-0.6
	c0.1-0.2,0.1-0.3,0.3-0.4c0.3-0.2,0.7-0.3,1.1-0.3c0.4,0,0.8,0.2,1.1,0.4c-2.9,2.3-8.6,10.1-7.8,16.9c0.5,3.8,1.6,6,4.5,8l0.9,0.4
	c-2.6-3.4-2-8.3,1.3-10.9c1.3-1,2.9-1.6,4.5-1.6l1.1-0.2c1.6,0,2.8-1.1,3.8-2.3l0.1-0.2c0-0.1,0.1-0.1,0.1-0.2v0.5l0,0v0l0,0v0.3
	c0.1,0.9,0.4,1.7,0.9,2.4c1.2,2.2,0.5,5-1.7,6.2c-0.2,0.1-0.4,0.2-0.6,0.3l0,0c0,0-0.1,0-0.1,0h0l0,0c0.3,0.1,0.7,0.2,1.1,0.2
	c0.2,0,0.3,0,0.5,0c3.1-0.5,5.4-2.5,5.2-5.6c0-0.3-0.1-0.5-0.2-0.8c-0.1-0.2-0.1-0.3-0.1-0.5c0-0.6,0.8-1.3,1.4-1.3
	c0.1,0,0.2,0,0.2,0c-1,3.8-1.8,12.5,3.3,16.8c2.4,2,4.4,2.9,7,2.9c0.6,0,1.2,0,1.8-0.1l0.9-0.3c-4.3-0.6-7.2-4.7-6.6-8.9
	c0.3-1.6,1-3.2,2.2-4.4l0.7-0.9c1.2-1.2,1.3-2.8,1.2-4.3v-0.4l0.3,0.3l0,0l0,0l0.2,0.2c0.6,0.6,1.5,1,2.3,1.1
	c0.7,0.2,1.3,0.6,1.9,1.1c1.4,1.4,1.8,3.6,0.8,5.4c0.5-0.2,0.9-0.6,1.3-1c1.9-2.5,2.2-5.5,0-7.7c-0.2-0.2-0.4-0.3-0.7-0.5
	c-0.2,0-0.3-0.2-0.4-0.3c-0.5-1-0.4-1.6,0-2.1l0-0.2c0.3,0.3,0.6,0.7,0.9,1l0.2,0.1c1,1.1,2.2,2.1,3.8,2.1h0.1l1.1,0.1h0.3
	c4.3,0,7.8,3.5,7.8,7.8c0,1.6-0.5,3.1-1.3,4.4l0.8-0.5c2.7-2.3,3.8-4.5,3.9-8.3c0.3-6.9-5.9-14.2-8.9-16.4c0.3-0.3,0.8-0.5,1.2-0.5
	c0.3,0,0.7,0.1,1,0.2c0.2,0,0.2,0.2,0.3,0.3c0.2,0.2,0.4,0.4,0.6,0.6c0.9,0.7,2,1.1,3.1,1.1c1.6,0,3.1-0.8,4.5-2
	c0.4-0.4,0.7-0.8,0.8-1.3c-2.1,1.5-4.8,1-6.3-1.1c-0.2-0.2-0.3-0.5-0.4-0.8c-0.2-0.8-0.7-1.6-1.3-2.1l-0.3-0.2l0,0l0,0l-0.4-0.3
	l0.4,0c1.5-0.1,3.1-0.4,4.1-1.7l0.8-0.8c2.7-3.4,7.5-4,10.9-1.3c1.3,1,2.2,2.4,2.7,4l0.2-0.9c0-3.5-1-5.7-3.8-8.3
	c-2.3-2.2-5.4-2.9-8.5-2.9c-2.9,0-5.8,0.6-8.5,1.6c-0.3-0.5,0.4-1.7,1.1-1.8h0.2c0.1,0,0.2,0,0.3,0c0,0,0.4,0,0.7,0h0.1
	c3.1-0.3,4.8-2.8,4.9-5.8c0-0.5-0.1-1-0.3-1.5c-0.4,1.9-2,3.4-4,3.6h-0.4c-0.6,0-1.2-0.1-1.7-0.3c-0.6-0.4-1.4-0.6-2.2-0.6h-0.3
	l-0.3,0h0l-0.5,0l0.3-0.3c1-1.1,2-2.4,1.8-4v-1.1c-0.4-4.3,2.8-8,7-8.5l0,0c0.2,0,0.5,0,0.7,0c1.4,0,2.8,0.4,4,1.1l-0.6-0.8
	c-2.4-2.6-4.6-3.5-8.3-3.5h-0.2c-6.6,0-11.4,7-13.1,10.6c-1.1-0.5-1.1-1.3-0.5-1.9c0,0,0.6-0.5,0.7-0.6c2.1-2.3,1.7-5.2-0.3-7.6
	c-0.3-0.4-0.8-0.8-1.3-0.9c1.3,2.2,0.5,4.9-1.6,6.1c-0.3,0.1-0.5,0.3-0.8,0.4c0,0-0.5,0.2-1.4,1.2l-0.2,0.2l0,0l0,0L54.5,29v-0.4
	c0-1.5-0.1-3.1-1.3-4.2l-0.7-0.8c-3.2-2.9-3.3-7.8-0.5-11c1.1-1.2,2.6-2.1,4.2-2.3L55.3,10L53.9,9.9L53.9,9.9z M49.9,73
	c-11.8,0-21.3-9.5-21.3-21.3s9.5-21.4,21.3-21.4s21.3,9.5,21.3,21.3l0,0C71.3,63.4,61.7,73,49.9,73C49.9,73,49.9,73,49.9,73z M69,38
	L69,38z M29.8,39L29.8,39z M38.7,72.4L38.7,72.4z"/>
<path id="circle" class="st1" d="M50,73c-11.8,0-21.3-9.5-21.3-21.3S38.2,30.3,50,30.3s21.3,9.5,21.3,21.3l0,0
	C71.3,63.4,61.8,73,50,73L50,73z"/>
</svg>
