<?xml version="1.0" encoding="utf-8"?>
<!-- Generator: Adobe Illustrator 26.1.0, SVG Export Plug-In . SVG Version: 6.00 Build 0)  -->
<svg version="1.1" id="Thunder" xmlns="http://www.w3.org/2000/svg" xmlns:xlink="http://www.w3.org/1999/xlink" x="0px" y="0px"
	 viewBox="0 0 100 100" style="enable-background:new 0 0 100 100;" xml:space="preserve">
<style type="text/css">
	.st0{fill:#FFFFFF;}
	.st1{fill:#D19954;}
</style>
<g id="Thunder-2_00000168081515775872904680000004825866777556907198_">
	<path id="background" class="st0" d="M48.6,56.5c-0.5,0-1,0-1.5,0c-3.6-0.2-7.1-1.3-10.1-3c-0.1-0.1-0.3-0.1-0.4,0
		c-2.8,1.6-6.1,2.4-9.4,2.4c-0.4,0-0.8,0-1.3,0C15.3,55,7.4,45.7,8.2,35c0.8-9.9,9-17.6,18.9-17.8c0.4,0,0.8,0,1.3,0
		c0.6,0,1.3,0.1,2,0.2h0.1c0.1,0,0.2,0,0.3-0.1c4.5-5.2,11-8.2,17.8-8.2c0.5,0,1,0,1.5,0c9,0.5,17,6.2,20.4,14.7
		c0,0.2,0.2,0.2,0.3,0.2l0,0h0.5c0.3,0,0.6,0,0.9,0c5,0.3,9.6,3.3,11.9,7.7c0.1,0.1,0.2,0.2,0.3,0.2H85c4.9,0.3,8.5,4.4,8.3,9.3
		c-0.3,4.7-4.1,8.3-8.8,8.3l0,0c-0.2,0-0.4,0-0.6,0c-0.8,0-1.6-0.2-2.3-0.5h-0.1c-0.1,0-0.2,0-0.3,0.1c-2.7,2.5-6.2,3.8-9.8,3.8
		c-0.3,0-0.6,0-0.9,0c-2.3-0.2-4.5-0.8-6.5-2c-0.1,0-0.1,0-0.2,0s-0.2,0-0.2,0.1C59.3,54.6,54.1,56.5,48.6,56.5z"/>
	<path id="line2_00000155840137792821583570000001029999188515162544_" class="st1" d="M83.8,45.1c-1.5,0-3-0.6-4.1-1.7l-0.2-0.3
		l0,0c-0.8-1.2-1.3-2.6-1.3-4c0-4,3.3-7.2,7.3-7.2l0,0c0.2,0,0.4,0.2,0.4,0.4s-0.2,0.4-0.4,0.4c-3.6,0-6.5,2.8-6.5,6.4
		c0,1.3,0.4,2.5,1.1,3.5l0.2,0.2c0.9,0.9,2.2,1.5,3.5,1.5c2.6,0,4.6-2.1,4.6-4.6c0-2.6-2.1-4.6-4.6-4.6h-0.1c-1.5,0-2.6,1.2-2.6,2.8
		c0,1.5,1.3,2.8,2.8,2.8l0,0c0.7,0,1.3-0.5,1.3-1.2c0-0.6-0.5-1.2-1.2-1.2c-0.6,0-1.2,0.5-1.2,1.2c0,0.2-0.2,0.4-0.4,0.4
		S82,39.6,82,39.4c0-1.1,0.9-1.9,1.9-1.9c1.1,0,1.9,0.9,1.9,1.9c-0.1,1.1-1,2-2.1,1.9l0,0c-2,0-3.6-1.6-3.6-3.6s1.4-3.6,3.4-3.6h0.1
		c3-0.1,5.5,2.3,5.6,5.3S86.9,44.9,83.8,45.1C83.9,45.1,83.9,45.1,83.8,45.1L83.8,45.1z M52.5,23.4c0-2.3-0.7-4.6-2-6.5l0,0
		l-0.4-0.4c-1.7-1.8-4.1-2.8-6.5-2.8c-4.8,0-8.8,3.9-8.8,8.7s3.9,8.8,8.7,8.8l0,0h0.2c3.1,0,5.4-2.4,5.4-5.7c0-3.1-2.5-5.7-5.7-5.7
		h-0.1c-1.7,0-3.3,1.4-3.3,3c0.1,1.6,1.4,2.9,3.1,2.9c1.6,0,2.8-1.3,2.9-2.9c0-0.2-0.2-0.4-0.4-0.4s-0.4,0.2-0.4,0.4
		c0,1.2-0.9,2.2-2.1,2.3C42,25,41,24,40.9,22.8c0-0.1,0-0.1,0-0.2c0-1.3,1.3-2.2,2.5-2.2h0.1c2.7,0,4.9,2.2,4.9,4.9
		c0,2.8-2,4.9-4.6,4.9h-0.2c-4.4,0-8-3.6-8-8s3.6-8,8-8l0,0c2.3,0,4.4,0.9,6,2.6l0.3,0.4c1.2,1.8,1.9,3.9,1.9,6.1
		c0,6-4.9,10.9-11,10.9s-11-4.7-11-10.7c0-2.1,0.6-4.2,1.7-5.9c0.1-0.2,0.1-0.4-0.1-0.5S31,17,30.9,17.2l0,0
		c-1.3,1.9-1.9,4.1-1.9,6.4c0,6.4,5.3,11.7,11.8,11.7S52.5,29.8,52.5,23.4z M48.6,9.6c-6.7,0-13.1,2.9-17.5,8
		c-0.2,0.2-0.4,0.3-0.6,0.3h-0.1c-0.6-0.1-1.3-0.2-1.9-0.2c-0.4,0-0.8,0-1.2,0c-10.4,0-18.9,8.5-18.9,19c0,9.9,7.7,18.1,17.7,18.8
		c0.4,0,0.8,0,1.2,0c3.2,0,6.4-0.8,9.2-2.4c0.1-0.1,0.2-0.1,0.4-0.1s0.3,0,0.4,0.1c3.1,1.7,6.5,2.8,10,3c0.5,0,1,0,1.5,0
		c5.4,0,10.5-1.9,14.7-5.2c0.3-0.2,0.6-0.2,0.9-0.1c1.9,1.1,4.1,1.8,6.3,1.9c0.3,0,0.6,0,0.9,0c3.5,0,6.9-1.3,9.5-3.7
		c0.2-0.2,0.5-0.3,0.8-0.2c0.7,0.2,1.4,0.4,2.2,0.4c0.2,0,0.4,0,0.5,0c4.6,0,8.4-3.8,8.4-8.4c0-4.4-3.5-8.2-7.9-8.4h-0.4
		c-0.3,0-0.5-0.2-0.7-0.4c-2.3-4.4-6.7-7.3-11.6-7.6c-0.3,0-0.6,0-0.9,0H71l0,0c-0.3,0-0.6-0.2-0.7-0.5c-3.2-8.2-11-13.7-19.9-14.3
		C49.6,9.6,49.1,9.6,48.6,9.6L48.6,9.6 M48.6,8.9c0.5,0,1,0,1.6,0c9.2,0.6,17.2,6.4,20.7,14.9c0.2,0,0.3,0,0.5,0c0.3,0,0.6,0,0.9,0
		c5.2,0.3,9.8,3.3,12.2,8c0.2,0,0.3,0,0.4,0c5,0.3,8.9,4.7,8.5,9.8c-0.3,4.8-4.3,8.5-9.1,8.5c-0.2,0-0.4,0-0.6,0
		c-0.8,0-1.6-0.2-2.4-0.5c-2.7,2.5-6.3,3.9-10.1,3.9c-0.3,0-0.6,0-0.9,0c-2.3-0.2-4.6-0.8-6.6-2.1c-4.3,3.5-9.6,5.4-15.1,5.4
		c-0.5,0-1,0-1.6,0c-3.6-0.2-7.2-1.3-10.3-3.1c-2.9,1.6-6.2,2.5-9.6,2.5c-0.4,0-0.8,0-1.3,0c-10.9-0.7-19.1-10.1-18.4-21
		C8.1,24.9,16.7,16.9,27,16.8c0.4,0,0.8,0,1.3,0c0.7,0,1.3,0.1,2,0.2C35,11.9,41.7,8.9,48.6,8.9L48.6,8.9z M36.3,54
		c1.4-1.4,2.2-2.8,2.5-4.3l0.2-1.3c0-1.8-0.6-3.6-1.9-4.9c-1.2-1.2-2.8-1.9-4.6-1.9l0,0c-1.7,0-3.3,0.7-4.5,1.9
		c-2.5,2.5-2.4,6.6,0.1,9.1l0,0l0.1,0.1c1.6,1.6,4.1,1.5,5.8-0.2c1.6-1.6,1.6-4.3,0-5.9l0,0l0,0c-0.9-0.9-2.5-1-3.3-0.1
		c-0.9,0.9-0.9,2.3,0,3.2c0.4,0.4,1,0.6,1.6,0.6l0,0c0.6,0,1.2-0.2,1.6-0.7c0.2-0.2,0.2-0.4,0-0.5l0,0c-0.2-0.2-0.4-0.2-0.5,0l0,0
		c-0.3,0.3-0.6,0.4-1,0.4l0,0c-0.8,0-1.5-0.6-1.5-1.5c0-0.4,0.2-0.8,0.4-1.1c0.6-0.6,1.7-0.4,2.2,0.1l0,0c1.3,1.3,1.3,3.5,0,4.8
		c-1.4,1.4-3.4,1.4-4.7,0.2l-0.2,0c-2.2-2.2-2.3-5.8-0.1-8c1.1-1.1,2.5-1.7,4-1.6l0,0c3.2,0,5.8,2.7,5.8,5.8c0,0,0,0,0,0.1l-0.1,1.2
		c-0.2,1.3-1,2.5-2.3,3.9c-0.2,0.2-0.2,0.4,0,0.5C36,54.1,36.2,54.1,36.3,54L36.3,54z"/>
	<polygon id="thunder-3_00000038399275274448029700000007902885637882947202_" class="st1" points="39.4,92.3 62.6,62.7 53.6,62.7 
		68.7,41.3 51.2,42 36.8,70.8 44.5,70.8 	"/>
	<path id="fill_00000044163312241735285430000015398968348463620740_" class="st0" d="M54.9,43.2c-0.7-1.9,0.3-4.1,2.3-4.8
		c1.9-0.7,4.1,0.3,4.8,2.3l0,0c0.7,1.9-0.7,4.2-2.6,4.9h-0.1C55.2,47,50.9,45,49.5,41l0,0c-1.4-3.9,0.3-8.2,4.3-9.6l0.2-0.1
		c6.4-2.3,13.4,1,15.6,7.3s-1.2,13.2-7.5,15.5c-3.2,1.1-6.8,0.9-9.8-0.7l-2.1-1.3c-2.5-1.9-4.2-4.7-5.3-7.9"/>
	<path id="line1_00000147197830244077397290000007504624375350981002_" class="st1" d="M57.9,55.2c-2.1,0-4-0.5-5.8-1.4L50,52.5
		c-2.4-1.7-4.1-4.3-5.4-8.1c-0.1-0.2,0-0.4,0.2-0.5s0.4,0,0.5,0.2c1.3,3.6,3,6.1,5.2,7.7l2.1,1.3c5.9,3,13.1,0.7,16.1-5.2
		c0-0.1,0.1-0.1,0.1-0.2c1.4-2.8,1.6-6,0.5-8.9c-2.2-6.1-8.9-9.2-15.1-7L54,31.9c-1.7,0.6-3.2,1.9-3.9,3.6S49.3,39.2,50,41
		c1.3,3.7,5.4,5.7,9.2,4.4h0.1c0.9-0.3,1.6-1,2.1-1.8s0.6-1.7,0.3-2.6c-0.6-1.7-2.5-2.7-4.3-2.1c-1.7,0.6-2.7,2.5-2.1,4.3l0,0
		c0.1,0.2,0,0.4-0.2,0.5l0,0c-0.2,0.1-0.4,0-0.5-0.2l0,0c-0.8-2.2,0.4-4.5,2.5-5.3c1-0.4,2.2-0.3,3.2,0.2s1.7,1.3,2.1,2.4
		c0.4,1.1,0.2,2.3-0.3,3.2c-0.6,1-1.4,1.7-2.5,2.2h-0.1c-4.1,1.5-8.7-0.7-10.2-4.8l0,0c-0.7-1.9-0.7-4.1,0.1-6s2.4-3.4,4.4-4
		l0.2-0.1c6.6-2.3,13.8,1,16.1,7.5c1.1,3.1,0.9,6.6-0.5,9.5c-1.4,3-4.1,5.3-7.2,6.4C60.7,55,59.3,55.2,57.9,55.2z"/>
</g>
</svg>
