<?xml version="1.0" encoding="utf-8"?>
<!-- Generator: Adobe Illustrator 26.1.0, SVG Export Plug-In . SVG Version: 6.00 Build 0)  -->
<svg version="1.1" id="Camada_1" xmlns="http://www.w3.org/2000/svg" xmlns:xlink="http://www.w3.org/1999/xlink" x="0px" y="0px"
	 viewBox="0 0 48.8 61.7" style="enable-background:new 0 0 48.8 61.7;" xml:space="preserve">
<style type="text/css">
	.st0{fill:#D19954;}
	.st1{fill:#FFFFFF;}
	.st2{fill:#666666;}
	.st3{fill:#E4E2DC;}
</style>
<path id="more_volume" class="st0" d="M7.5,22.7H14l11.7-11.9v40l-12-11.9H7.5V22.7z M29.6,22.1v17.4c2.8-1.9,4.7-5.1,4.7-8.7
	S32.5,24,29.6,22.1z M35.1,15.1c0,0-0.1,0-0.1-0.1c-0.3-0.3-0.8-0.5-1.2-0.5c-1.1,0-1.9,0.9-1.9,1.9c0,0.6,0.3,1.1,0.6,1.4
	c0,0,0,0.1,0.1,0.1c3.7,3,6.1,7.6,6.1,12.8c0,5.2-2.4,9.8-6.1,12.8c0,0-0.1,0.1-0.1,0.1c-0.4,0.4-0.6,0.8-0.6,1.4
	c0,1.1,0.9,1.9,1.9,1.9c0.5,0,0.9-0.2,1.2-0.5c0,0,0,0,0,0c4.6-3.7,7.5-9.4,7.5-15.8C42.5,24.5,39.6,18.9,35.1,15.1z"/>
</svg>
