<?xml version="1.0" encoding="utf-8"?>
<!-- Generator: Adobe Illustrator 26.1.0, SVG Export Plug-In . SVG Version: 6.00 Build 0)  -->
<svg version="1.1" id="button_day" xmlns="http://www.w3.org/2000/svg" xmlns:xlink="http://www.w3.org/1999/xlink" x="0px" y="0px"
	 viewBox="0 0 176.8 61.7" style="enable-background:new 0 0 176.8 61.7;" xml:space="preserve">
<style type="text/css">
#button_day:hover .st0 {fill:#CCCCCC;}
	.st0{fill:#D19954;}
	.st1{fill:#EDD6BB;}
	.st2{fill:#FFFFFF;}
</style>
<path id="background" class="st0" d="M174.1,31.5L174.1,31.5c0,16.2-13.3,29.5-29.5,29.5H34.5C18.3,61,5,47.7,5,31.5l0,0
	C5,15.3,18.3,2,34.5,2h110.1C160.9,2,174.1,15.3,174.1,31.5z"/>
<circle id="circle" class="st1" cx="142.9" cy="31" r="20.5"/>
<path id="day" class="st2" d="M37.4,42.4V19.7h7.7c2.4,0,4.4,0.5,6,1.5c1.6,1,2.8,2.4,3.6,4.1C55.6,27.1,56,29,56,31
	c0,2.3-0.4,4.3-1.3,6s-2.1,3-3.8,4c-1.6,0.9-3.6,1.4-5.8,1.4H37.4z M53.7,31c0-1.8-0.3-3.4-1-4.8c-0.7-1.4-1.6-2.5-2.9-3.3
	c-1.3-0.8-2.8-1.2-4.7-1.2h-5.5v18.8h5.5c1.9,0,3.5-0.4,4.7-1.2c1.3-0.8,2.3-2,2.9-3.4C53.4,34.4,53.7,32.8,53.7,31z M66.5,19.7h1.9
	l9.4,22.7h-2.4l-2.8-7.1H62.2l-2.8,7.1H57L66.5,19.7z M71.9,33.6l-4.5-11.2L63,33.6H71.9z M78.7,19.7l7.4,12.2l7.5-12.2H96L87.2,34
	v8.4H85v-8.5l-8.8-14.2H78.7z"/>
</svg>
