<?xml version="1.0" encoding="utf-8"?>
<!-- Generator: Adobe Illustrator 26.1.0, SVG Export Plug-In . SVG Version: 6.00 Build 0)  -->
<svg version="1.1" id="comet" xmlns="http://www.w3.org/2000/svg" xmlns:xlink="http://www.w3.org/1999/xlink" x="0px" y="0px"
	 viewBox="0 0 100 100" style="enable-background:new 0 0 100 100;" xml:space="preserve">
<style type="text/css">
	.st0{fill:#FFFFFF;}
	.st1{fill:#D19954;}
</style>
<path id="background" class="st0" d="M33.2,83.2c0,0-0.1,0-0.1,0l-13.8,0.5c-0.1,0-0.2,0-0.2-0.1L9.1,72.2C9,72.1,9,72.1,9,72
	l1.8-13.8c0-0.1,0.1-0.2,0.1-0.2l13.3-7.4c0.1,0,0.2,0,0.2,0l13,5.8c0.1,0,0.1,0.1,0.1,0.2l4.5,14.7c0,0.1,0,0.2,0,0.2l-8.8,11.6
	C33.2,83.1,33.2,83.2,33.2,83.2L33.2,83.2z"/>
<path id="line" class="st1" d="M24.4,50.8l13,5.8l4.5,14.7L33,82.9l-13.8,0.5L9.3,72l1.8-13.8L24.4,50.8 M24.2,50.3L24.2,50.3
	l-13.3,7.4c-0.2,0.1-0.3,0.2-0.3,0.4L8.7,72c0,0.2,0,0.3,0.1,0.5l9.9,11.4c0.1,0.1,0.3,0.2,0.5,0.2l13.8-0.5c0.1,0,0.2,0,0.2-0.1
	c0.1,0,0.1-0.1,0.2-0.2l8.8-11.6c0.1-0.1,0.1-0.4,0.1-0.5l-4.6-14.8c0-0.1-0.2-0.3-0.3-0.4l-13-5.8C24.5,50.2,24.3,50.2,24.2,50.3
	L24.2,50.3L24.2,50.3z M38.4,76.1c-0.1-0.1-0.2-0.2-0.4-0.1L24,83c-0.1,0.1-0.2,0.2-0.1,0.4s0.2,0.2,0.4,0.1l0,0l14-7.1
	C38.4,76.4,38.5,76.2,38.4,76.1L38.4,76.1z M37.6,56.6c0-0.1-0.1-0.3-0.2-0.3l0,0l-20-2.2c-0.2,0-0.3,0.1-0.3,0.3s0.1,0.2,0.2,0.3
	l20,2.2C37.5,56.9,37.6,56.8,37.6,56.6L37.6,56.6L37.6,56.6z M34,78.6c0.1-0.1,0-0.3-0.1-0.4l0,0L10.4,65.4c-0.1-0.1-0.3,0-0.4,0.1
	c-0.1,0.1,0,0.3,0.1,0.4l0,0l23.5,12.8c0.1,0,0.2,0,0.3,0C33.9,78.7,34,78.6,34,78.6L34,78.6z M37.6,56.5c0-0.1-0.2-0.2-0.4-0.2
	l-27,7.2c-0.1,0-0.2,0.2-0.2,0.4c0,0.1,0.2,0.2,0.4,0.2l26.9-7.2c0,0,0,0,0.1,0C37.6,56.8,37.7,56.7,37.6,56.5z M29.2,61.8l0.2,0.5
	c1.2-0.6,2.5-0.6,3,0c0.7,0.9,0,2.6-1.5,3.8c-0.3,0.2-0.7,0.5-1,0.7c-1.2,0.6-2.5,0.6-3,0c-0.7-0.9,0-2.6,1.5-3.8
	c0.3-0.2,0.6-0.5,1-0.7L29.2,61.8 M29.2,61.8c-0.4,0.2-0.8,0.5-1.1,0.8c-1.8,1.5-2.5,3.5-1.6,4.7c0.7,0.9,2.2,0.9,3.8,0.1
	c0.4-0.2,0.8-0.5,1.1-0.8c1.8-1.4,2.5-3.5,1.6-4.7C32.2,61.1,30.6,61.1,29.2,61.8z M25.3,76.9c0.5-0.2,1.1,0,1.3,0.4
	c0.2,0.5,0,1.1-0.4,1.3c-0.5,0.2-1.1,0-1.3-0.4C24.6,77.7,24.8,77.2,25.3,76.9 M25,76.4c-0.8,0.4-1.1,1.3-0.7,2.1s1.3,1.1,2.1,0.7
	s1.1-1.3,0.7-2.1l0,0C26.7,76.3,25.8,76,25,76.4z M21.1,79c0.2-0.1,0.5,0,0.6,0.2s0,0.5-0.2,0.6c-0.2,0.1-0.5,0-0.6-0.2l0,0
	C20.8,79.5,20.9,79.2,21.1,79 M20.8,78.5c-0.5,0.2-0.7,0.9-0.5,1.4s0.9,0.7,1.4,0.5s0.7-0.9,0.5-1.4C22,78.5,21.3,78.2,20.8,78.5z
	 M50.3,66.7c1-8-3.1-15.7-10.3-19.4c-0.1-0.1-0.3,0-0.4,0.1s0,0.3,0.1,0.4l0,0c6.9,3.6,10.9,11.1,9.9,18.8c0,0.1,0.1,0.3,0.2,0.3
	l0,0C50.1,66.9,50.3,66.8,50.3,66.7C50.3,66.6,50.3,66.6,50.3,66.7L50.3,66.7L50.3,66.7z M44.4,41.8c-0.1-0.1-0.2-0.2-0.4-0.1l0,0
	L37.4,45c-0.1,0.1-0.2,0.2-0.1,0.4c0.1,0.1,0.2,0.2,0.4,0.1l0,0l6.5-3.3C44.4,42.2,44.4,42,44.4,41.8L44.4,41.8z M78.1,34.1
	C78,34,77.8,33.9,77.7,34l0,0L47.8,49.2c-0.1,0.1-0.2,0.2-0.1,0.4s0.2,0.2,0.4,0.1l0,0L78,34.5C78.1,34.5,78.2,34.3,78.1,34.1
	L78.1,34.1z M57.9,68.5c-0.1-0.1-0.2-0.2-0.4-0.1l0,0l-6.5,3.3c-0.1,0.1-0.2,0.2-0.1,0.4l0,0c0.1,0.1,0.2,0.2,0.4,0.1l0,0l6.5-3.3
	C57.9,68.8,58,68.7,57.9,68.5L57.9,68.5z M78.4,48.1C78.3,48,78.2,47.9,78,48l0,0l-14.5,7.3c-0.1,0.1-0.2,0.2-0.1,0.4
	s0.2,0.2,0.4,0.1l0,0l14.5-7.3C78.4,48.4,78.5,48.3,78.4,48.1L78.4,48.1z M90.3,48c-0.1-0.1-0.2-0.2-0.4-0.1L55.8,65.1
	c-0.1,0.1-0.2,0.2-0.1,0.4l0,0c0.1,0.1,0.2,0.2,0.4,0.1l34.1-17.3C90.3,48.3,90.4,48.1,90.3,48L90.3,48z M66.3,34.8
	c-0.1-0.1-0.2-0.2-0.4-0.1l0,0l-7.5,3.8c-0.1,0.1-0.2,0.2-0.1,0.4s0.2,0.2,0.4,0.1l0,0l7.5-3.8C66.3,35.1,66.3,34.9,66.3,34.8z
	 M90.3,34.4c-0.1-0.1-0.2-0.2-0.4-0.1l0,0L68,45.4c-0.1,0.1-0.2,0.2-0.1,0.4s0.2,0.2,0.4,0.1l22-11.1C90.4,34.7,90.4,34.5,90.3,34.4
	L90.3,34.4z M92.2,33.3l0.5-0.7c1.1-2.1,0.3-4.8-1.8-5.9c0,0,0,0-0.1,0c-2.1-1-4.6-0.2-5.7,1.8c0,0,0,0.1,0,0.1
	c-0.5,1-0.6,2.2-0.2,3.3l0,0.1c0.2,0.7,0.7,1.2,1.4,1.5c0.6,0.3,1.4,0.3,2.1,0.1c1.5-0.5,2.2-2.1,1.8-3.5l0,0
	c-0.2-0.8-1.1-1.3-2-1.1c-0.8,0.3-1.1,1.2-0.9,2c0.3,0.7,1.1,1.1,1.8,0.9c0.1,0,0.2-0.2,0.2-0.4s-0.2-0.2-0.4-0.2
	c-0.5,0.2-1-0.1-1.2-0.6c-0.1-0.2-0.1-0.5,0-0.7s0.3-0.4,0.5-0.5s0.5,0,0.7,0.1c0.2,0.1,0.4,0.4,0.5,0.6v0c0.4,1.1-0.2,2.4-1.4,2.8
	l0,0c-0.5,0.2-1.1,0.2-1.7-0.1c-0.5-0.2-0.9-0.7-1.1-1.2l0-0.1c-0.3-0.9-0.2-2,0.2-2.8c0.9-1.8,3-2.6,4.8-1.7c0,0,0,0,0.1,0
	c1.9,0.9,2.6,3.2,1.7,5.1c0,0,0,0,0,0L91.7,33c-0.5,0.7-1.3,1.2-2.5,1.6c-0.1,0-0.2,0.2-0.2,0.4c0,0.1,0.2,0.2,0.4,0.2
	c0.4-0.1,0.7-0.3,1.1-0.4C91.2,34.3,91.8,33.8,92.2,33.3L92.2,33.3L92.2,33.3z M92.5,46.6l0.6-0.9c0.7-1.4,0.9-3,0.4-4.4
	c-1-2.9-4.1-4.5-7-3.5c-1.4,0.5-2.5,1.5-3.2,2.8c-0.6,1.3-0.7,2.9-0.2,4.2l0,0.1c0.6,1.8,2.5,2.7,4.4,2.1c1.9-0.6,2.9-2.7,2.2-4.5
	v-0.1c-0.4-1-1.5-1.7-2.5-1.4c-1,0.4-1.4,1.5-1,2.5c0.4,0.9,1.3,1.3,2.2,1.1c0.1,0,0.2-0.2,0.2-0.4c0-0.1-0.2-0.2-0.4-0.2
	c-0.7,0.2-1.4-0.1-1.7-0.8c-0.2-0.7,0.1-1.4,0.8-1.7c0.7-0.2,1.5,0.3,1.7,1l0,0.1c0.5,1.5-0.3,3.2-1.9,3.8l0,0
	c-1.6,0.5-3.2-0.2-3.7-1.7l0-0.1c-0.4-1.2-0.4-2.6,0.2-3.8s1.6-2.1,2.8-2.5c2.6-0.9,5.4,0.6,6.2,3.2c0.4,1.3,0.3,2.8-0.3,4L92,46.2
	c-0.7,0.9-1.8,1.6-3.3,2.1c-0.1,0-0.2,0.2-0.2,0.4c0,0.1,0.2,0.2,0.4,0.2l0,0c0.5-0.1,0.9-0.4,1.4-0.6
	C91.2,47.9,91.9,47.3,92.5,46.6L92.5,46.6L92.5,46.6z M42.7,79.6c6.7-9.8,4-23.2-5.8-29.9c-2.6-1.8-5.5-2.9-8.6-3.4
	c-0.1,0-0.3,0.1-0.3,0.2l0,0c0,0.1,0.1,0.3,0.2,0.3c11.4,1.9,19.2,12.6,17.3,24c-0.5,3-1.6,5.8-3.3,8.3c-0.1,0.1,0,0.3,0.1,0.4
	C42.4,79.6,42.5,79.7,42.7,79.6L42.7,79.6L42.7,79.6z M86.5,55.2c-0.1-0.1-0.2-0.2-0.4-0.1l-16.2,8.2c-0.1,0.1-0.2,0.2-0.1,0.4
	s0.2,0.2,0.4,0.1l0,0l16.2-8.2C86.5,55.5,86.6,55.4,86.5,55.2C86.4,55.1,86.4,55.1,86.5,55.2L86.5,55.2z M90,60.4
	c0.7-0.5,1.2-1.2,1.3-2.1c0.1-0.9-0.1-1.7-0.6-2.4c-0.5-0.8-1.4-1.2-2.2-1.4l-0.6,0c-0.9,0-1.7,0.4-2.3,0.9
	c-0.1,0.1-0.2,0.3-0.1,0.4c0.1,0.1,0.3,0.2,0.4,0.1c0.6-0.4,1.2-0.7,2-0.8l0.6,0c1.5,0.2,2.5,1.6,2.3,3.1v0c-0.2,1.4-1.6,2.4-3,2.2
	h-0.1c-0.7-0.1-1.3-0.5-1.7-1.1l0,0c-0.5-0.7-0.3-1.6,0.4-2c0,0,0,0,0.1,0c0.7-0.5,1.7-0.3,2.2,0.4l0,0c0.2,0.3,0.2,0.7-0.1,0.9
	c-0.3,0.2-0.7,0.1-0.9-0.1s-0.1-0.7,0.1-0.9c0.1-0.1,0.2-0.3,0.1-0.4l0,0c-0.1-0.1-0.3-0.2-0.4-0.1c-0.5,0.4-0.7,1.1-0.3,1.7
	c0.4,0.5,1.1,0.7,1.7,0.3c0.5-0.4,0.6-1.2,0.2-1.8l0,0c-0.7-1-2-1.2-3-0.5c-1,0.6-1.2,1.9-0.6,2.9c0,0,0,0,0,0l0,0
	c0.5,0.7,1.2,1.2,2.1,1.4c0.7,0.1,1.4,0,2-0.3C89.8,60.6,89.9,60.6,90,60.4L90,60.4L90,60.4z M64.9,31.2l-16.2,8.2
	c-0.1,0.1-0.2,0.2-0.1,0.4s0.2,0.2,0.4,0.1l16.2-8.2c0.1-0.1,0.2-0.2,0.1-0.4C65.2,31.2,65,31.1,64.9,31.2
	C64.9,31.2,64.9,31.2,64.9,31.2z M62.7,25.6c-0.6,0.3-1.1,0.8-1.4,1.5c-0.4,0.8-0.4,1.7-0.1,2.5l0,0.1c0.4,1.1,1.6,1.6,2.7,1.2h0
	c1.1-0.4,1.7-1.6,1.4-2.7v0c-0.2-0.6-0.9-1-1.5-0.8c-0.6,0.2-1,0.9-0.8,1.5c0.2,0.6,0.9,1,1.5,0.8l0,0c0.1-0.1,0.2-0.2,0.2-0.4
	S64.4,29,64.3,29s-0.3,0-0.5,0c-0.3-0.1-0.4-0.5-0.3-0.8c0.1-0.1,0.2-0.2,0.4-0.3c0.4-0.1,0.7,0.1,0.8,0.5v0c0.3,0.8-0.1,1.7-1,2
	c-0.8,0.3-1.6-0.1-1.9-0.8c-0.2-0.5-0.2-0.5,0-0.1l0-0.1c-0.2-0.7-0.2-1.4,0.1-2c0.6-1.3,2.2-1.8,3.5-1.2c0,0,0,0,0,0
	c0.6,0.3,1.1,0.9,1.3,1.5c0.2,0.7,0.2,1.5-0.2,2.1l-0.3,0.5c-0.5,0.5-1.1,0.9-1.8,1.1c-0.1,0-0.2,0.2-0.2,0.4s0.2,0.2,0.4,0.2
	c0.8-0.2,1.5-0.7,2.1-1.4l0.3-0.5c0.4-0.8,0.5-1.8,0.2-2.6c-0.3-0.8-0.9-1.5-1.7-1.9c-0.8-0.4-1.7-0.5-2.5-0.2
	C63,25.4,62.9,25.5,62.7,25.6L62.7,25.6L62.7,25.6z"/>
</svg>
