<?xml version="1.0" encoding="utf-8"?>
<!-- Generator: Adobe Illustrator 26.1.0, SVG Export Plug-In . SVG Version: 6.00 Build 0)  -->
<svg version="1.1" id="constellation" xmlns="http://www.w3.org/2000/svg" xmlns:xlink="http://www.w3.org/1999/xlink" x="0px"
	 y="0px" viewBox="0 0 100 100" style="enable-background:new 0 0 100 100;" xml:space="preserve">
<style type="text/css">
	.st0{fill:#D19954;}
</style>
<path id="line" class="st0" d="M31.7,53v0.1c-0.1,0.3-0.3,0.5-0.6,0.5H31c-0.4-0.1-0.6-0.4-0.5-0.8c0.1-0.3,0.3-0.5,0.6-0.5h0.1
	C31.5,52.4,31.7,52.7,31.7,53L31.7,53z M29.1,52h-0.1c-0.4,0-0.6,0.2-0.7,0.6s0.2,0.7,0.6,0.7H29c0.3,0,0.6-0.2,0.6-0.5v-0.1
	C29.6,52.3,29.4,52,29.1,52L29.1,52z M24.8,51.1h-0.1c-0.4,0-0.6,0.3-0.6,0.7c0,0.3,0.2,0.6,0.5,0.7h0.1c0.3,0,0.6-0.2,0.6-0.5v-0.1
	C25.2,51.5,25,51.2,24.8,51.1L24.8,51.1L24.8,51.1z M26.9,51.5h-0.1c-0.4,0-0.6,0.3-0.6,0.7c0,0.3,0.2,0.5,0.5,0.6h0.1
	c0.3,0,0.6-0.2,0.6-0.5v-0.1C27.4,51.8,27.2,51.6,26.9,51.5z M33.4,52.8h-0.1c-0.4,0-0.7,0.3-0.7,0.7c0,0.3,0.2,0.6,0.5,0.7h0.1
	c0.3,0,0.6-0.2,0.7-0.5v-0.1C33.9,53.1,33.7,52.9,33.4,52.8L33.4,52.8z M37.5,54.9h0.1c0.3,0,0.6-0.2,0.7-0.5v-0.1
	c0-0.3-0.2-0.6-0.5-0.7h-0.1c-0.4,0-0.7,0.3-0.7,0.7C36.9,54.6,37.1,54.8,37.5,54.9L37.5,54.9z M39.6,55.3h0.1
	c0.3,0,0.6-0.2,0.7-0.5v-0.1c0-0.3-0.2-0.6-0.5-0.7h-0.1c-0.3,0-0.6,0.2-0.7,0.5C39,54.9,39.3,55.2,39.6,55.3
	C39.6,55.3,39.6,55.3,39.6,55.3z M35.6,53.2h-0.1c-0.4,0-0.7,0.3-0.7,0.7c0,0.3,0.2,0.6,0.5,0.7h0.1c0.3,0,0.6-0.2,0.7-0.5v-0.1
	C36.1,53.5,35.8,53.3,35.6,53.2L35.6,53.2L35.6,53.2z M43.9,56.1h0.1c0.3,0,0.6-0.2,0.7-0.5v-0.1c0-0.3-0.2-0.6-0.5-0.7h-0.1
	c-0.3,0-0.6,0.2-0.7,0.5C43.4,55.7,43.6,56.1,43.9,56.1L43.9,56.1L43.9,56.1z M46.1,56.6h0.1c0.3,0,0.6-0.2,0.7-0.5V56
	c0-0.3-0.2-0.6-0.5-0.7h-0.1c-0.4,0-0.7,0.3-0.7,0.7C45.6,56.2,45.8,56.5,46.1,56.6L46.1,56.6z M48.3,57h0.1c0.2,0,0.3-0.1,0.4-0.2
	c0-0.1,0.1-0.2,0.2-0.3v-0.1c0-0.3-0.2-0.6-0.5-0.7h-0.1c-0.4,0-0.7,0.3-0.6,0.7C47.7,56.7,48,56.9,48.3,57L48.3,57L48.3,57z
	 M41.8,55.7h0.1c0.3,0,0.6-0.2,0.7-0.5v-0.1c0-0.3-0.2-0.6-0.5-0.7h-0.1c-0.4,0-0.7,0.3-0.7,0.7C41.2,55.4,41.5,55.7,41.8,55.7
	L41.8,55.7z M22.6,50.7h-0.1c-0.4,0-0.6,0.3-0.6,0.7c0,0.3,0.2,0.5,0.5,0.6h0.1c0.3,0,0.6-0.2,0.6-0.5C23.2,51.1,23,50.8,22.6,50.7z
	 M20.4,50.3h-0.1c-0.4,0-0.6,0.3-0.6,0.7c0,0.3,0.2,0.5,0.5,0.6h0.1c0.3,0,0.6-0.2,0.6-0.5V51C20.9,50.6,20.7,50.4,20.4,50.3
	C20.4,50.3,20.4,50.3,20.4,50.3z M48.1,66.1C48,66,47.9,66,47.8,66c-0.4,0-0.7,0.3-0.7,0.7c0,0.4,0.3,0.7,0.7,0.7
	c0.4,0,0.7-0.3,0.7-0.7C48.4,66.4,48.3,66.2,48.1,66.1z M45.8,71.1c0.1,0,0.1,0,0.2,0c0.3,0,0.5-0.2,0.6-0.5c0-0.1,0-0.1,0-0.2
	c0-0.3-0.2-0.5-0.5-0.6c-0.1,0-0.1,0-0.2,0c-0.4,0-0.7,0.3-0.7,0.7C45.3,70.8,45.6,71.1,45.8,71.1L45.8,71.1L45.8,71.1z M49.1,64.2
	c-0.1,0-0.2-0.1-0.3-0.1c-0.4,0-0.7,0.3-0.7,0.7c0,0.2,0.1,0.5,0.3,0.6c0.3,0.1,0.7,0,0.9-0.3c0-0.1,0.1-0.2,0.1-0.3
	C49.4,64.5,49.3,64.3,49.1,64.2C49.1,64.2,49.1,64.2,49.1,64.2z M43,81.4c0.1,0,0.1,0,0.2,0c0.3,0,0.5-0.2,0.6-0.5
	c0-0.1,0-0.1,0-0.2c0-0.3-0.2-0.5-0.5-0.6c-0.1,0-0.1,0-0.2,0c-0.4,0-0.7,0.3-0.7,0.7C42.5,81.1,42.7,81.3,43,81.4L43,81.4L43,81.4z
	 M43.5,79.4c0.1,0,0.1,0,0.2,0c0.3,0,0.6-0.2,0.7-0.5c0-0.1,0-0.1,0-0.2c0-0.3-0.2-0.5-0.5-0.6c-0.1,0-0.1,0-0.2,0
	c-0.4,0-0.7,0.3-0.7,0.7C43.1,79,43.3,79.2,43.5,79.4L43.5,79.4L43.5,79.4z M44.5,76.1c-0.1,0-0.1,0-0.2,0c-0.4,0-0.7,0.3-0.7,0.6
	c0,0.3,0.2,0.5,0.5,0.7c0.1,0,0.1,0,0.2,0c0.3,0,0.5-0.2,0.6-0.5c0-0.1,0-0.1,0-0.2C44.9,76.4,44.8,76.1,44.5,76.1L44.5,76.1
	L44.5,76.1z M50,62.3c-0.1,0-0.2-0.1-0.3-0.1c-0.2,0-0.5,0.1-0.6,0.4c-0.2,0.3,0,0.7,0.3,0.9c0.1,0,0.2,0.1,0.3,0.1
	c0.4,0,0.7-0.3,0.7-0.7C50.4,62.6,50.3,62.4,50,62.3C50,62.3,50,62.3,50,62.3z M45.5,74.8c0-0.1,0-0.1,0-0.2c0-0.3-0.2-0.5-0.5-0.6
	c-0.1,0-0.1,0-0.2,0c-0.4,0-0.7,0.3-0.7,0.6c0,0.3,0.2,0.5,0.5,0.7c0.1,0,0.1,0,0.2,0C45.1,75.3,45.4,75.1,45.5,74.8L45.5,74.8z
	 M57.2,52.1c-0.4,0-0.7,0.3-0.7,0.7s0.3,0.7,0.7,0.7s0.7-0.3,0.7-0.7c0-0.2-0.1-0.3-0.2-0.4C57.6,52.1,57.4,52.1,57.2,52.1z
	 M73.5,30c-0.1-0.1-0.2-0.1-0.3-0.1c-0.4,0-0.7,0.3-0.7,0.6c0,0.2,0.1,0.4,0.3,0.5c0.1,0.1,0.2,0.1,0.3,0.1c0.4,0,0.7-0.3,0.7-0.6
	l0,0C73.8,30.3,73.7,30.1,73.5,30L73.5,30z M72.4,31.8c-0.3-0.2-0.7-0.1-0.9,0.2c-0.2,0.3-0.1,0.7,0.2,0.9l0,0
	C71.9,33,72,33,72.1,33c0.2,0,0.4-0.1,0.5-0.3c0.1-0.1,0.1-0.2,0.1-0.3C72.7,32.1,72.6,31.9,72.4,31.8L72.4,31.8L72.4,31.8z
	 M68,39.1c-0.1-0.1-0.2-0.1-0.3-0.1c-0.4,0-0.7,0.3-0.7,0.7c0,0.2,0.1,0.4,0.3,0.5c0.1,0.1,0.2,0.1,0.3,0.1c0.4,0,0.7-0.3,0.7-0.7
	C68.4,39.4,68.3,39.2,68,39.1z M74.6,28.1c-0.1-0.1-0.2-0.1-0.3-0.1c-0.4,0-0.7,0.3-0.7,0.6c0,0.2,0.1,0.4,0.3,0.5
	c0.1,0.1,0.2,0.1,0.3,0.1c0.2,0,0.4-0.1,0.6-0.3c0.1-0.1,0.1-0.2,0.1-0.3C74.9,28.5,74.8,28.3,74.6,28.1L74.6,28.1L74.6,28.1z
	 M70.2,35.4c-0.1-0.1-0.2-0.1-0.3-0.1c-0.4,0-0.7,0.3-0.7,0.7c0,0.2,0.1,0.4,0.3,0.5c0.1,0.1,0.2,0.1,0.3,0.1c0.2,0,0.4-0.1,0.5-0.3
	c0.1-0.1,0.1-0.2,0.1-0.3C70.5,35.8,70.4,35.6,70.2,35.4L70.2,35.4L70.2,35.4z M69.1,37.2c-0.1-0.1-0.2-0.1-0.3-0.1
	c-0.2,0-0.4,0.1-0.5,0.3c-0.2,0.3-0.1,0.7,0.2,0.9c0.1,0.1,0.2,0.1,0.3,0.1c0.2,0,0.4-0.1,0.5-0.3c0.1-0.1,0.1-0.2,0.1-0.3
	C69.4,37.6,69.3,37.4,69.1,37.2C69.1,37.2,69.1,37.2,69.1,37.2z M75.6,26.3c-0.3-0.2-0.7-0.1-0.9,0.2c-0.2,0.3-0.1,0.7,0.2,0.9
	c0.1,0.1,0.2,0.1,0.3,0.1c0.2,0,0.5-0.1,0.6-0.3c0.1-0.1,0.1-0.2,0.1-0.3C75.9,26.7,75.8,26.5,75.6,26.3
	C75.6,26.3,75.6,26.3,75.6,26.3z M77,25.1c0-0.2-0.1-0.4-0.3-0.5c-0.1-0.1-0.2-0.1-0.3-0.1c-0.4,0-0.7,0.3-0.7,0.6
	c0,0.2,0.1,0.4,0.3,0.5c0.1,0.1,0.2,0.1,0.3,0.1c0.2,0,0.4-0.1,0.5-0.3C77,25.3,77,25.2,77,25.1L77,25.1L77,25.1z M71.3,33.6
	c-0.1-0.1-0.2-0.1-0.3-0.1c-0.4,0-0.7,0.3-0.7,0.7c0,0.2,0.1,0.4,0.3,0.5c0.1,0.1,0.2,0.1,0.3,0.1c0.4,0,0.7-0.3,0.7-0.7
	C71.6,33.9,71.5,33.7,71.3,33.6z M58.7,50.6c-0.2,0-0.3,0.1-0.4,0.2c-0.2,0.2-0.2,0.7,0,0.9c0.1,0.1,0.3,0.2,0.5,0.2
	c0.4,0,0.7-0.3,0.7-0.7l0,0c0-0.2-0.1-0.3-0.2-0.4C59,50.7,58.9,50.6,58.7,50.6L58.7,50.6z M61.8,47.7c-0.2,0-0.3,0.1-0.4,0.2
	c-0.2,0.2-0.2,0.7,0,0.9l0,0c0.1,0.1,0.3,0.2,0.5,0.2c0.2,0,0.3-0.1,0.4-0.2s0.2-0.3,0.2-0.5s-0.1-0.3-0.2-0.4
	C62.1,47.7,61.9,47.6,61.8,47.7L61.8,47.7L61.8,47.7z M60.2,49.1c-0.4,0-0.7,0.3-0.7,0.7s0.3,0.7,0.7,0.7s0.7-0.3,0.7-0.7
	c0-0.2-0.1-0.3-0.2-0.4C60.6,49.2,60.4,49.1,60.2,49.1L60.2,49.1z M63.2,46.2c-0.2,0-0.3,0.1-0.4,0.2c-0.2,0.2-0.2,0.7,0,0.9l0,0
	c0.2,0.2,0.7,0.2,0.9,0c0.1-0.1,0.2-0.3,0.2-0.5s-0.1-0.3-0.2-0.4C63.6,46.2,63.4,46.2,63.2,46.2L63.2,46.2L63.2,46.2z M66.3,42
	c0.1,0.1,0.2,0.1,0.3,0.1c0.2,0,0.4-0.1,0.5-0.3c0.1-0.1,0.1-0.2,0.1-0.3c0-0.2-0.1-0.4-0.3-0.5c-0.1-0.1-0.2-0.1-0.3-0.1
	c-0.4,0-0.7,0.3-0.7,0.7C66,41.7,66.1,41.9,66.3,42L66.3,42z M47,68c-0.1,0-0.1,0-0.2,0c-0.4,0-0.7,0.3-0.7,0.7
	c0,0.3,0.2,0.5,0.5,0.6c0.1,0,0.1,0,0.2,0c0.3,0,0.5-0.2,0.6-0.5c0-0.1,0-0.1,0-0.2C47.5,68.3,47.3,68.1,47,68L47,68z M45.2,73.2
	c0.1,0,0.1,0,0.2,0c0.3,0,0.5-0.2,0.6-0.5c0-0.1,0-0.1,0-0.2c0-0.3-0.2-0.5-0.5-0.6c-0.1,0-0.1,0-0.2,0c-0.4,0-0.7,0.3-0.7,0.7
	C44.7,72.9,44.9,73.1,45.2,73.2L45.2,73.2L45.2,73.2z M51,60c-0.1,0-0.1,0-0.2,0c-0.4,0-0.7,0.3-0.7,0.7c0,0.3,0.2,0.5,0.5,0.6
	c0.1,0,0.1,0,0.2,0c0.3,0,0.5-0.2,0.6-0.5c0-0.1,0-0.1,0-0.2C51.5,60.4,51.3,60.1,51,60L51,60z M55.7,55.1c0.1,0,0.1,0,0.2,0
	c0.3,0,0.5-0.2,0.6-0.5c0-0.1,0-0.1,0-0.2c0-0.3-0.2-0.5-0.5-0.6c-0.1,0-0.1,0-0.2,0c-0.4,0-0.7,0.3-0.7,0.7
	C55.2,54.8,55.4,55,55.7,55.1L55.7,55.1L55.7,55.1z"/>
<path id="stars" class="st0" d="M68,42.5l-2.1,1.8l2.1,1.8l-2.7-0.9L64.8,48l-0.5-2.8l-2.7,0.9l2.1-1.8l-2.1-1.8l2.7,0.9l0.5-2.8
	l0.5,2.8L68,42.5z M89.1,22.1l-7-1.1l4.4,5.5L81,22.1l1.1,7l-2.6-6.6l-2.6,6.6l0.8-5.2c-0.1,0-0.1,0-0.2,0c-0.4,0-0.7-0.3-0.7-0.6
	c0-0.1,0-0.2,0.1-0.3l0,0l-4.5,3.6l4.5-5.5L70,22l6.6-2.6L70,16.9l7,1.1l-4.4-5.6l5.5,4.5l-1.1-7l2.6,6.6l2.6-6.6l-1.1,7l5.5-4.4
	L82.1,18l7-1.1l-6.6,2.6C82.5,19.5,89.1,22.1,89.1,22.1z M77.9,22.8l0.1-0.7l-0.8,0.6c0.1,0,0.1,0,0.2,0S77.7,22.7,77.9,22.8
	C77.9,22.7,77.9,22.7,77.9,22.8L77.9,22.8z M53.1,53.6c-0.1-0.5-0.2-1-0.4-1.6c-0.2,0.5-0.3,1-0.4,1.6c-0.3,1.9-1.8,3.4-3.7,3.8
	l-0.8,0.2c0.3,0.1,0.7,0.2,1,0.3c1.8,0.5,3.1,1.9,3.4,3.7c0.1,0.5,0.2,1,0.4,1.5c0.2-0.5,0.3-0.9,0.4-1.5c0.3-1.8,1.7-3.3,3.4-3.7
	c0.3-0.1,0.7-0.2,1-0.3c0,0-0.3-0.1-0.8-0.2C54.9,57,53.4,55.4,53.1,53.6L53.1,53.6L53.1,53.6z M20.8,49.6c0.4-0.1,0.7-0.2,1-0.3
	c0,0-0.3-0.1-0.8-0.2c-1.9-0.4-3.3-1.9-3.7-3.8c-0.1-0.5-0.2-1-0.4-1.6c-0.2,0.5-0.3,1-0.4,1.6c-0.3,1.9-1.8,3.4-3.7,3.8l-0.8,0.2
	c0.3,0.1,0.6,0.2,1,0.3c1.8,0.5,3.1,1.9,3.4,3.7c0.1,0.5,0.2,1,0.4,1.5c0.2-0.5,0.3-0.9,0.4-1.5c0.1-0.8,0.5-1.6,1-2.2
	c0.2-0.1,0.3-0.2,0.4-0.4C19.3,50.1,20,49.7,20.8,49.6L20.8,49.6L20.8,49.6z M42.4,82.1l-0.9-4.6l-0.9,4.6l-4.5-1.5l3.5,3.1
	l-3.5,3.1l4.5-1.5l0.9,4.6l0.9-4.6l4.5,1.5l-3.5-3.1l3.5-3.1L42.4,82.1z"/>
</svg>
