<?xml version="1.0" encoding="UTF-8"?><svg id="a" xmlns="http://www.w3.org/2000/svg" viewBox="0 0 100 100"><defs><style>.c{fill:#d19954;}</style></defs><path id="b" class="c" d="M72.05,25.83v-7.69l-3.56,.9v.1l-10.11,2.45-15.61,3.93v1.99l-.04,5.14h.04v39.21l-.47,.03c-8,.49-13.04,2.58-14.99,6.21-2.06,3.84-1.33,7.05,.51,9.14,1.84,2.09,6.37,1.67,9.13,.55,4.93-2.01,7-5.08,7.68-8.38,.16-.75,.24-4.03,.28-8.64l-.03-38.62,19.82-4.61,4.46-1.11v.08l.77-.18v39.38l-.47,.03c-8,.49-13.04,2.58-14.99,6.21-2.06,3.84-1.33,7.05,.51,9.14,1.84,2.09,6.37,1.67,9.13,.55,4.93-2.01,7-5.08,7.68-8.38,.16-.75,.24-4.03,.28-8.64l-.03-38.79h0Z"/></svg>