<?xml version="1.0" encoding="utf-8"?>
<!-- Generator: Adobe Illustrator 26.1.0, SVG Export Plug-In . SVG Version: 6.00 Build 0)  -->
<svg version="1.1" id="planet" xmlns="http://www.w3.org/2000/svg" xmlns:xlink="http://www.w3.org/1999/xlink" x="0px" y="0px"
	 viewBox="0 0 100 100" style="enable-background:new 0 0 100 100;" xml:space="preserve">
<style type="text/css">
	.st0{fill:#FFFFFF;}
	.st1{fill:#D19954;}
</style>
<ellipse id="back" class="st0" cx="49.5" cy="52.5" rx="27.2" ry="27.1"/>
<path id="line" class="st1" d="M49.5,80C34.3,80,22,67.7,22,52.5S34.3,25,49.5,25S77,37.3,77,52.5S64.6,80,49.5,80z M49.5,25.7
	c-14.8,0-26.8,12-26.8,26.8s12,26.8,26.8,26.8s26.8-12,26.8-26.8S64.3,25.7,49.5,25.7C49.5,25.7,49.5,25.7,49.5,25.7z M54.8,73.2
	c-0.1,0-0.2,0-0.3-0.1c-0.1-0.1-9.7-12.2-19.2-15.8c-10.4-4-9.2-17-8.9-19.8c0,0,0.1-0.2,0.2-0.3c0.1-0.2,0.2-0.4,0.4-0.6
	c0.1,0.1,0.2,0.3,0.2,0.4c0,0.2-2.7,15.3,8.4,19.5c9.6,3.7,19.4,15.9,19.5,16c0.1,0.2,0.1,0.4,0,0.5C55,73.2,54.9,73.2,54.8,73.2
	L54.8,73.2z M57,73.3c-3.3,0-7,0.3-10,1.3c-1.8,0.6-3.7,0.9-5.6,0.9c-3.4,0-6.8-0.8-9.9-2.4c-0.2-0.1-0.3-0.3-0.2-0.5
	c0.1-0.2,0.3-0.3,0.5-0.2c0,0,0,0,0.1,0c0.1,0,7.2,4,14.9,1.5c3.2-1,7-1.4,10.4-1.4 M60.8,72.7c3.4,0.2,5.8,0.5,5.9,0.5
	c0.2,0,0.3,0.2,0.3,0.4s-0.2,0.3-0.4,0.3l0,0c-0.1,0-2.4-0.4-5.8-0.5 M75.4,45.2c-0.1,0-0.2,0-0.2-0.1c-0.1-0.1-8.2-8.3-14-12.3
	S46,26,45.9,26c-0.2-0.1-0.3-0.3-0.2-0.5c0.1-0.2,0.2-0.3,0.4-0.3c0.1,0,9.6,2.8,15.5,6.9s14,12.3,14.1,12.4c0.2,0.1,0.2,0.4,0,0.5
	C75.6,45.1,75.5,45.2,75.4,45.2L75.4,45.2z M65.1,59c-1.6,0-3-1.3-3-3s1.3-3,3-3s2.9,1.3,2.9,3S66.7,59,65.1,59z M65.1,53.7
	c-1.2,0-2.3,1-2.3,2.2s1,2.2,2.3,2.2s2.3-1,2.3-2.2S66.3,53.7,65.1,53.7z M38.4,70.5c-1.6,0-3-1.3-3-3s1.3-3,3-3s3,1.3,3,3
	S40,70.5,38.4,70.5z M38.4,65.3c-1.2,0-2.3,1-2.3,2.2s1,2.2,2.3,2.2s2.3-1,2.3-2.2S39.6,65.3,38.4,65.3z M31.9,65.4
	c-1.1-0.1-1.9-1.1-1.9-2.2c0.1-1.2,1-2,2.1-2c1,0.1,1.8,1,1.8,2.1C34,64.5,33.1,65.4,31.9,65.4C31.9,65.4,31.9,65.4,31.9,65.4z
	 M31.9,61.9c-0.7,0.1-1.2,0.7-1.2,1.5c0.1,0.8,0.7,1.3,1.4,1.2c0.7-0.1,1.2-0.6,1.2-1.4C33.3,62.5,32.7,61.9,31.9,61.9L31.9,61.9z
	 M59,36.5c-1.1-0.1-1.9-1.1-1.8-2.2s1-2,2.1-2c1,0.1,1.8,1,1.8,2.1C61.1,35.6,60.2,36.6,59,36.5z M59,33.1c-0.7,0.1-1.2,0.7-1.2,1.5
	c0.1,0.8,0.7,1.3,1.4,1.2c0.7-0.1,1.2-0.6,1.2-1.4S59.8,33,59,33.1L59,33.1z M59,75.4c-1.1-0.1-1.9-1.1-1.8-2.2s1-2.1,2.1-2
	c1,0.1,1.8,1,1.8,2.1C61.1,74.5,60.2,75.5,59,75.4z M59,71.9c-0.7,0.1-1.2,0.7-1.2,1.5c0.1,0.8,0.7,1.3,1.4,1.2
	c0.7-0.1,1.2-0.6,1.2-1.4S59.8,71.9,59,71.9z M55.9,51.3c7.9,7.7,12.7,20.1,12.7,20.2c0.1,0.2,0,0.4-0.2,0.5c0,0-0.1,0-0.1,0
	c-0.2,0-0.3-0.1-0.3-0.2c-0.1-0.1-4.8-12.4-12.6-20 M47.5,41.6C45.3,34,49.6,27.1,49.7,27c0.1-0.2,0.3-0.2,0.5-0.1
	c0.2,0.1,0.2,0.3,0.1,0.5c-1.3,2.3-2.2,4.8-2.6,7.5c-0.3,2.2-0.1,4.5,0.5,6.6 M49.9,55.5c-4,0-7.3-3.3-7.3-7.3s3.3-7.3,7.3-7.3
	s7.3,3.3,7.3,7.3S53.9,55.5,49.9,55.5z M49.9,41.6c-3.6,0-6.6,2.9-6.6,6.6s3,6.6,6.6,6.6s6.6-2.9,6.6-6.6S53.6,41.6,49.9,41.6z"/>
</svg>
