<?xml version="1.0" encoding="utf-8"?>
<!-- Generator: Adobe Illustrator 26.1.0, SVG Export Plug-In . SVG Version: 6.00 Build 0)  -->
<svg version="1.1" id="Camada_1" xmlns="http://www.w3.org/2000/svg" xmlns:xlink="http://www.w3.org/1999/xlink" x="0px" y="0px"
	 viewBox="0 0 1280 705" style="enable-background:new 0 0 1280 705;" xml:space="preserve">
<style type="text/css">
	.st0{fill:url(#sky_x5F_day2_00000181061558734774713620000011610626386753753229_);}
	.st1{fill:#2B5868;}
	.st2{fill:#25B8B2;}
	.st3{fill:#5B7982;}
	.st4{fill:#00AAB2;}
	.st5{fill:#007986;}
</style>
<g id="sky_x5F_day">
	
		<radialGradient id="sky_x5F_day2_00000129888665167016959780000011636321434945086595_" cx="640" cy="447.3208" r="578.6546" gradientTransform="matrix(1 0 0 0.6912 0 43.3119)" gradientUnits="userSpaceOnUse">
		<stop  offset="4.278739e-03" style="stop-color:#182651"/>
		<stop  offset="0.7225" style="stop-color:#100B2C"/>
		<stop  offset="1" style="stop-color:#0C001D"/>
	</radialGradient>
	
		<rect id="sky_x5F_day2" style="fill:url(#sky_x5F_day2_00000129888665167016959780000011636321434945086595_);" width="1280" height="705"/>
</g>
<g id="montains">
	<path id="_x36_" class="st1" d="M352.3,703.9h98.6c4.4-0.9,8.2-2,11.3-3.5c30.4-14.8-50.2-48.2-50.2-48.2s-19.5-6.8-33.6-5.6
		s-91.6-7.8-91.6-7.8s-16.1-3.2-37.1-2.1c-21,1.1-69.9,9.5-108.6,12c-23.6,1.5-60.7-9.1-60.7-9.1l-80.9-14.7v79H302
		C316.6,702.7,334.1,703.1,352.3,703.9z"/>
	<path id="_x35_" class="st2" d="M388.6,642.7c6.4-4.4,54.1-14.5,62-15.1c8-0.5,14.1,4.6,19.6,2.1c5.5-2.6,8.6-6.2,17.8-8.8
		c9.2-2.6,17.8-12.9,28.8-14.4s17.8,3.6,17.8,3.6l6.9,5.8c1.1,0.9,2.5,1.4,4,1.3c2.7-0.2,7.1-0.3,9.3,0.2
		c3.4,0.8,10.7,8.5,16.6,10.3c5.8,1.8,14.1-0.5,23.3,4.6s14.1,16,20.2,19.1c6.1,3.1,12.3-3.6,20.9-4.6c8.6-1,6.7,5.2,12.3,9.3
		s17.8,4.6,22.7,6.7c3.8,1.6,24,18,33.2,25.5c0.8,0.7,4.1,4.8,3,4.5c-6.8-2.3-32.8-10.1-46.9-11.1c-35.7-2.6-92.3-0.3-109.2-1.5
		s-46.9-6.5-73.3-14.7S382.2,647.1,388.6,642.7z"/>
	<path id="_x34_" class="st3" d="M1133.4,672.1c0.9-1.1-13.3-7.5-43.8-10.1c-5.5-0.5-27.8,13.8-30.2,12.3
		c-2.5-1.5-54.2-16.2-72.8-16.3c-54.5-0.2-56.8,11.4-83,3.1c-27.6-8.7-43.3-24.2-61.3-25c-32-1.3-61.3,22.7-69.3,22.7
		s-10.4-3.6-19.6-7.2c-9.2-3.6-21.8,1.2-21.8,1.2s-20.5,9.1-23,10.7c-2.5,1.6-12.3,1.5-17.8,1s-9.8-7.7-15.3-8.3
		c-4.5-0.4-7.4,3.9-7.9,5.6c3,0.8,23.7,14.5,39.9,30.7c4.9,4.9,56.3,14.3,69.8,14.8s33.1,0.4,33.1,0.4l20.3,0.2L929,708l20.3-0.2
		c0,0,19.6-0.9,33.1-1.4s123.1-0.3,126.1-1.1C1111.4,705.3,1108.6,700.5,1133.4,672.1z"/>
	<path id="_x33_" class="st4" d="M577.3,687.6c-16.1-0.2-33.8-1.9-60.5-2.6c-26.6-0.7-78.2-6.6-94.8-7.5c-11.3-0.6-38.7-23.6-50-21
		c0.2-0.2-19.5-4.7-36,8.3s-22.3,1.5-35.9,1.8c-15.8,0.3-46.2,1.6-59.9-1.8c-13.7-3.4-42.9-6-59.4-3.9c-16.5,2-44.1,8.2-70.5,10.8
		S62,687.7,46,689.1c-10.9,1-33.1-3.2-46.3-6.1v21.9h593.9C601.8,694.8,588.8,687.8,577.3,687.6z"/>
	<path id="_x32_" class="st5" d="M1245.4,676.4c-5.3-1.1-17.4,0.6-23.9-2.5c-6.4-3-6.2-9.4-14.3-6.9c-8.1,2.5-12.4,10.2-19.2,8.3
		c-6.8-1.9-14.3-11.6-24.6-15c-10.3-3.4-17.8,0.4-23.9-0.4c-6.1-0.8-15.3-7-18.8-7.1c-2.3-0.1-6.6,0.8-9.2,1.5
		c-1.4,0.4-3,0.2-4.3-0.5l-8.2-4.4c0,0-7.9-3.8-18.3-0.3s-16.2,15.1-24.5,19.3s-10.4,8.2-15.2,11.8c-4.7,3.5-12-0.4-19.7,1.5
		c-6.7,1.7-68.9,19.1-80.8,26.3l339-3v-12C1267.6,686.7,1248.9,677.2,1245.4,676.4z"/>
	<path id="_x31_" class="st1" d="M412,689.5c3.4,4.5,10.8,9.7,21.1,15.3l341.3,2c-26.2-5-104.5-29.3-132.6-35.8
		c-31.4-7.3-75.6,11.8-95.3,7.4c-19.7-4.4-58.3-16.5-58.3-16.5s-61.2-17.7-85.7-21.6c-24.5-3.9-72.4,3.9-72.4,3.9
		S378.8,645.7,412,689.5z"/>
</g>
</svg>
