<?xml version="1.0" encoding="UTF-8"?><svg id="a" xmlns="http://www.w3.org/2000/svg" viewBox="0 0 100 100"><defs><style>.f{fill:#d19954;}</style></defs><g id="b"><path id="c" class="f" d="M50.54,36.34l-2.2,10.88c-.04,.23-.19,.42-.38,.49-.19,.11-.42,.15-.64,.08l-10.5-3.52,8.34,7.35c.3,.27,.34,.8,.08,1.1l-.08,.08-8.34,7.35,10.5-3.52c.08-.04,.15-.04,.23-.04,.15,0,.27,.04,.38,.11,.19,.11,.34,.3,.38,.49l2.2,10.84,2.2-10.84c.04-.23,.19-.42,.38-.49,.11-.08,.23-.11,.38-.11,.08,0,.15,0,.23,.04l10.5,3.52-8.34-7.39c-.3-.27-.34-.8-.08-1.1l.08-.08,8.26-7.35-10.5,3.52c-.19,.08-.42,.04-.64-.08-.19-.11-.34-.3-.38-.49l-2.05-10.84"/><path id="d" class="f" d="M50.54,36.91l-2.12,10.5c-.04,.23-.19,.42-.38,.49-.19,.11-.42,.15-.61,.08l-10.16-3.41,8.03,7.09c.3,.27,.34,.76,.08,1.06l-.08,.08-8.03,7.05,10.16-3.41c.08-.04,.15-.04,.23-.04,.15,0,.27,.04,.38,.11,.19,.11,.34,.3,.38,.49l2.12,10.46,2.12-10.46c.04-.23,.19-.42,.38-.49,.11-.08,.23-.11,.38-.11,.08,0,.15,0,.23,.04l10.16,3.41-8-7.09c-.3-.27-.34-.76-.08-1.06l.08-.08,8-7.09-10.16,3.41c-.19,.08-.42,.04-.61-.08-.19-.11-.34-.3-.38-.49l-2.12-10.46m0-3.87l2.88,14.14,13.68-4.59-10.84,9.55,10.84,9.55-13.68-4.59-2.88,14.17-2.88-14.14-13.68,4.59,10.8-9.55-10.8-9.51,13.68,4.59,2.88-14.21Zm16.56,9.74v-.38h0v.38Z"/><path id="e" class="f" d="M8.36,52.52h13.68m.38,0c0-.23-.15-.38-.38-.38H8.36c-.23,0-.38,.15-.38,.38s.15,.38,.38,.38h13.68c.19,0,.38-.15,.38-.38Zm56.54,0h13.68m.34,0c0-.23-.15-.38-.38-.38h-13.64c-.23,0-.38,.15-.38,.38s.15,.38,.38,.38h13.68c.19,0,.34-.15,.34-.38ZM50.5,10.38v11.29m.38,0V10.38c0-.23-.15-.38-.38-.38s-.38,.15-.38,.38v11.29c0,.23,.15,.38,.38,.38s.38-.19,.38-.38Zm-.38,61.66v11.29m.38,0v-11.29c0-.23-.15-.38-.38-.38s-.38,.15-.38,.38v11.29c0,.23,.15,.38,.38,.38s.38-.15,.38-.38ZM28.03,30.05l7.05,7.05m.27,.27c.15-.15,.15-.38,0-.53h0l-7.05-7.05c-.19-.11-.42-.08-.53,.11-.08,.11-.08,.27,0,.38l7.05,7.09c.15,.15,.38,.15,.53,0Zm-12.7-12.73l3.11,3.11m.27,.3c.15-.15,.15-.38,0-.53l-3.11-3.11c-.15-.15-.38-.15-.53,0s-.15,.38,0,.53l3.11,3.11c.15,.15,.38,.15,.53,0Zm39.94,39.9l7.05,7.05m.27,.3c.15-.15,.15-.38,0-.53l-7.05-7.09c-.15-.15-.38-.15-.53,0s-.15,.38,0,.53l7.05,7.05c.08,.08,.15,.11,.27,.11,.11,.04,.19,0,.27-.08h0Zm5.12,5.12l-3.11-3.11m3.37,3.37c.15-.15,.15-.38,0-.53h0l-3.11-3.11c-.15-.15-.42-.11-.53,.04-.11,.15-.11,.34,0,.49l3.11,3.11c.15,.15,.38,.15,.53,0h0Zm-43.58-12.77l-7.39,7.39m.27,.27l7.39-7.39c.15-.15,.15-.38,0-.53s-.38-.15-.53,0h0l-7.39,7.39c-.15,.15-.15,.38,0,.53,.08,.08,.15,.11,.27,.11s.19-.04,.27-.11h0ZM73.01,30.05l-7.05,7.05m.27,.27l7.05-7.05c.11-.19,.08-.42-.11-.53-.11-.08-.3-.08-.42,0l-7.05,7.05c-.15,.15-.15,.38,0,.53h0c.11,.15,.38,.15,.53,0h0Zm12.16-12.73l-3.11,3.11m.27,.3l3.11-3.11c.15-.15,.15-.38,0-.53s-.38-.15-.53,0l-3.11,3.15c-.15,.15-.15,.38,0,.53,.08,.08,.15,.11,.27,.11,.08-.04,.19-.08,.27-.15ZM22.65,80.41l3.11-3.11m-2.84,3.37l3.11-3.11c.15-.15,.11-.42-.04-.53-.15-.11-.34-.11-.49,0l-3.11,3.11c-.15,.15-.15,.38,0,.53h0c.11,.15,.38,.15,.53,0h0Zm-2.08-40.81l9.63,4.09m.34,.15c.08-.19,0-.42-.19-.49h0l-9.63-4.09c-.19-.08-.42,0-.49,.19h0c-.08,.19,0,.42,.19,.49l9.63,4.09s.11,.04,.15,.04c.15,0,.27-.08,.34-.23h0Zm39.75,16.94l9.63,4.09m.34,.15c.08-.19,0-.42-.19-.49l-9.63-4.09c-.19-.08-.42,0-.49,.19s0,.42,.19,.49h.04l9.63,4.09s.11,.04,.15,.04c.11,0,.23-.08,.3-.23h0Zm-21.49-32.82l4.09-9.63m-3.75,9.74l4.09-9.63c.08-.19,0-.42-.19-.49s-.42,0-.49,.19h0l-4.09,9.63c-.08,.19,0,.42,.19,.49,.04,.04,.11,.04,.15,.04,.15,0,.3-.08,.34-.23Zm-17.43,39.98l-4.09,9.63m.34,.11l4.09-9.63c.08-.19,0-.42-.19-.49s-.42,0-.49,.19h0l-4.09,9.63c-.08,.19,0,.42,.19,.49,.04,.04,.11,.04,.15,.04,.15,.04,.3-.08,.34-.23Zm.27-59.72l3.9,9.7m.15,.34c.19-.08,.3-.3,.23-.49h0l-3.94-9.7c-.08-.19-.3-.3-.49-.23h0c-.19,.08-.3,.3-.23,.49l3.94,9.74c.08,.15,.19,.23,.34,.23,.04,0,.11,0,.15-.04Zm16.11,40.09l3.9,9.7m.15,.34c.19-.08,.3-.3,.23-.49h0l-3.9-9.7c-.08-.19-.3-.27-.49-.19s-.27,.27-.19,.45l3.9,9.7c.08,.15,.19,.23,.34,.23,.04,.04,.08,.04,.11,0h0Zm17.74-42.29l-9.7,3.9m.15,.34l9.7-3.9c.19-.08,.3-.27,.23-.49-.08-.19-.27-.3-.49-.23h-.04l-9.66,3.94c-.19,.08-.3,.3-.23,.49,.08,.15,.19,.23,.34,.23,.08,0,.11,0,.15-.04Zm-50.29,19.82l9.7-3.9m-9.55,4.28l9.7-3.9c.19-.08,.3-.27,.23-.49s-.27-.3-.49-.23h-.04l-9.7,3.9c-.19,.08-.3,.3-.23,.49,.08,.15,.19,.23,.34,.23h.19Z"/></g></svg>